<?xml version="1.0" encoding="utf-8"?>
<!-- Generator: Adobe Illustrator 19.2.0, SVG Export Plug-In . SVG Version: 6.00 Build 0)  -->
<svg version="1.1" id="Layer_1" xmlns="http://www.w3.org/2000/svg" xmlns:xlink="http://www.w3.org/1999/xlink" x="0px" y="0px"
	 viewBox="0 0 342.4 133.7" style="enable-background:new 0 0 342.4 133.7;" xml:space="preserve">
<style type="text/css">
	.st0{fill:#231F20;}
	.st1{fill:#FFD138;}
</style>
<g>
	<polygon class="st0" points="304.3,47.9 304.3,44.8 296.1,44.8 296.1,58.7 299.7,58.7 299.7,54 303.6,54 303.6,51.2 299.7,51.2 
		299.7,47.9 	"/>
	<path class="st0" d="M314.4,44.6c-3.2,0-5.9,2.5-5.9,7.3c0,4.7,2.7,7.3,5.9,7.3c3.3,0,5.9-2.6,5.9-7.3
		C320.3,47.1,317.6,44.6,314.4,44.6z M314.4,56.1c-1.4,0-2.3-1.5-2.3-4.3c0-2.7,0.9-4.2,2.3-4.2s2.3,1.5,2.3,4.2
		C316.7,54.6,315.8,56.1,314.4,56.1z"/>
	<path class="st0" d="M333.1,53.7c0.9-0.9,1.4-2.1,1.4-3.8c0-3.3-2.2-5.1-5.7-5.2c-1.2,0-2.7,0-3.8,0.1v13.8h3.6v-3.5
		c0.4,0,0.7,0,1,0l0.2,0l1,3.5h3.9L333.1,53.7z M329.4,52.1c-0.3,0.1-0.5,0.1-0.7,0v-4.3c0.2,0,0.4,0,0.7,0c0.9,0.1,1.6,0.7,1.6,2.1
		C330.9,51.1,330.3,51.9,329.4,52.1z"/>
	<polygon class="st0" points="18.5,21.3 18.5,7.4 14.9,7.4 14.9,15.3 11.1,7.4 7.7,7.4 7.7,21.3 11.3,21.3 11.3,13.5 15.1,21.3 	"/>
	<path class="st0" d="M28.8,21.8c3.3,0,5.9-2.6,5.9-7.3c0-4.8-2.7-7.3-6-7.3c-3.2,0-5.9,2.5-5.9,7.3C22.8,19.2,25.5,21.8,28.8,21.8z
		 M28.8,10.2c1.4,0,2.3,1.5,2.3,4.2c0,2.7-0.9,4.3-2.3,4.3c-1.4,0-2.3-1.5-2.3-4.3C26.5,11.7,27.3,10.2,28.8,10.2z"/>
	<polygon class="st0" points="44.9,21.3 46.9,12.4 49,21.3 52.3,21.3 55.8,7.4 52.3,7.4 50.4,16.7 48.2,7.4 45.5,7.4 43.4,16.7 
		41.5,7.4 37.9,7.4 41.6,21.3 	"/>
	<path class="st1" d="M205.4,12.8C205.4,12.8,205.4,12.8,205.4,12.8c1.6,0,2.8-1.1,2.8-2.6c0-0.7-0.3-1.4-0.8-1.9
		c-0.5-0.5-1.2-0.8-2-0.8c0,0,0,0,0,0c-1.6,0-2.7,1.1-2.7,2.6C202.7,11.7,203.8,12.8,205.4,12.8z"/>
	<path class="st1" d="M318,20.1c-2,4.7-7.2,6.8-11.5,6.8c0,0,0,0,0,0c-2.9,0-4.8-1.1-5.2-2.9c1,0.7,2.2,1.1,3.7,1.1c0,0,0,0,0,0
		c3.8,0,6.5-2.2,6.5-5.4c0-1.5-0.5-2.8-1.5-3.7c-1-0.9-2.4-1.4-4.1-1.4c0,0,0,0,0,0c-4.4,0-7.9,3-8.8,7.3c-2.3,4.3-5.7,4.8-7.2,4.8
		c0,0,0,0,0,0c-1.4,0-2.6-0.5-3.3-1.4c-0.7-1-0.9-2.3-0.5-3.9l3.3-12.7l-4.7,0l-3.2,12c-2,3.2-6.5,5.6-11.5,6.2
		c1.7-1.3,2.5-3.4,2.5-6.6c0-1.5-0.5-2.8-1.4-3.7c-1-1-2.3-1.5-3.8-1.5c0,0,0,0,0,0c-1.3,0-3.3,0.3-4.8,2.8l2.5-9.3l-4.6,0L257.6,21
		l0,0l-0.1,0.3c-2.3,4.9-6,5.4-7.5,5.4c0,0,0,0,0,0c-1.4,0-2.6-0.5-3.3-1.4c-0.7-0.9-0.9-2.3-0.5-3.9l1.5-5.9l-1.4,0
		c-0.6,0-1.4-0.1-2.2-0.1c-1-0.1-2.1-0.2-3.1-0.2c0,0,0,0,0,0c-4.1,0-7.5,2.5-8.9,6.3c-2.3,4.7-5.9,5.3-7.4,5.3c0,0,0,0,0,0
		c-1.4,0-2.6-0.5-3.3-1.4c-0.7-1-0.9-2.3-0.5-3.9l3.3-12.7l-4.7,0l-3.3,12.6c-2.3,4.8-6,5.4-7.5,5.4c0,0,0,0,0,0
		c-1.4,0-2.6-0.5-3.3-1.4c-0.7-0.9-0.9-2.3-0.5-3.9l1.5-5.9l-4.7,0l-1.5,5.7l-0.1,0.1c-2.3,4.9-6,5.4-7.5,5.4c0,0,0,0,0,0
		c-1.4,0-2.6-0.5-3.3-1.4c-0.7-0.9-0.9-2.3-0.5-3.9l1.5-5.9l-1.4,0c-0.6,0-1.4-0.1-2.2-0.1c-1-0.1-2.1-0.2-3.1-0.2c0,0,0,0,0,0
		c-3.8,0-7.1,2.2-8.6,5.6c-1.6,2.1-4.2,3.6-6.5,3.6c0,0,0,0,0,0c-3.6,0-3.9-2.5-3-4.5l2.2-4.5l-5.1,0l-3.9,9.3
		c-0.4,1-1.2,2.2-2.2,2.2c0,0,0,0,0,0c-0.6,0-0.8-0.6-0.6-2.2l1.1-9.3l-4.6,0l-1.1,9.7c-0.2,1.9,0.1,3.4,1,4.3
		c0.7,0.8,1.9,1.2,3.3,1.2c0,0,0,0,0,0c3.8,0,5.7-2.4,6.9-4.5c1.3,1.9,2.9,2.3,5.2,2.3c0,0,0,0,0,0c2.3,0,4.5-0.7,6.4-1.8
		c0.2,0.9,0.7,1.7,1.3,2.4c1,1.1,2.4,1.7,3.9,1.7c0,0,0,0,0,0c2.4,0,4.6-1.1,6.1-3.1c1.1,2,3.1,3.1,5.6,3.1c0,0,0,0,0,0
		c3.6,0,6.8-1.3,9.2-3.5c0.2,0.3,0.3,0.6,0.6,0.9c1.3,1.7,3.5,2.6,6.1,2.6c0,0,0,0,0,0c3.6,0,6.8-1.2,9.2-3.5
		c0.2,0.3,0.3,0.6,0.5,0.9c1.3,1.7,3.5,2.6,6.1,2.6c0,0,0,0,0,0c3.3,0,6.3-1.1,8.7-3.1c0.2,0.5,0.5,1,0.9,1.4c1,1.1,2.4,1.7,3.9,1.7
		c0,0,0,0,0,0c2.4,0,4.6-1.1,6.1-3.1c1.1,2,3.1,3.1,5.6,3.1c0,0,0,0,0,0c2.7,0,5.3-0.8,7.4-2.1l-0.3,1.2l0,0.2l4.6,0l0.5-2
		c1.2,1.8,3.6,2.7,7,2.7c0,0,0,0,0,0c4.3,0,9.9-1.1,13.7-4.2c0.2,0.6,0.5,1.1,0.9,1.6c1.3,1.7,3.5,2.6,6.1,2.6c0,0,0,0,0,0
		c3.6,0,6.9-1.3,9.3-3.6c1.4,2.3,4.5,3.8,8.3,3.8c0,0,0,0,0,0c6.2,0,11.7-2.8,14.3-7.2l0-0.1l-2.2-3.7L318,20.1z M301.7,20.8
		c0.7-1.5,2-2.4,3.4-2.4c0,0,0,0,0,0c0.6,0,1.1,0.2,1.4,0.5c0.3,0.3,0.4,0.7,0.4,1.1c0,1.2-0.9,1.9-2.3,1.9c0,0,0,0,0,0
		C303.5,21.9,302.5,21.5,301.7,20.8z M267.8,21.7c0,2.2-1.7,4.1-3.7,4.1c0,0,0,0,0,0c-1.5,0-2.4-0.9-2.6-2.5l0.3-1.2
		c0.3-1.4,1.8-2.9,3.4-2.9c0,0,0,0,0,0c0.9,0,1.6,0.2,2,0.7C267.6,20.4,267.8,21,267.8,21.7z M237.8,26.6
		C237.8,26.6,237.8,26.6,237.8,26.6c-1.1,0-1.9-0.9-1.9-2.2c0-1.6,0.5-3,1.4-4c0.9-1,2.2-1.6,3.7-1.6c0.3,0,0.7,0,1.2,0l-1.2,4.6
		C240.5,25,239.4,26.6,237.8,26.6z M183.8,18.8C183.8,18.8,183.8,18.8,183.8,18.8c0.3,0,0.7,0,1.2,0l-1.2,4.6
		c-0.4,1.5-1.5,3.1-3.1,3.1c0,0,0,0,0,0c-1.1,0-1.9-0.9-1.9-2.2C178.7,21.1,180.8,18.8,183.8,18.8z"/>
	<path class="st1" d="M315.9,89.2c-0.9,1.6-2.5,3.5-4.5,3.5c0,0,0,0,0,0c-1.8,0-3.1-1.6-3.1-3.9c0-2.4,1.2-3.4,2.5-3.4c0,0,0,0,0,0
		c0.7,0,1.2,0.3,1.6,0.9l0.1,0.2l2.1-3l-0.1-0.1c-0.9-1.4-2-2-3.7-2c0,0,0,0,0,0c-2.1,0-3.9,1-5.2,3l2.1-9.4l-4.3,0l-2.9,12.7l0,0
		l-0.1,0.2c-2.2,3.7-4.7,5.4-8,5.4c0,0,0,0,0,0c-1.3,0-2.2-0.4-2.8-1.2c-0.6-0.9-0.6-2.1-0.1-3.5l0.7-1.7c0.7-1.7,0.7-3.2,0-4.3
		c-0.7-1.2-2.1-2-4.2-2.3l-8-1.3l-1,3.9l2.6,0.4c-0.5,2.3-1.7,4.7-3.6,5.9c-1.2,0.8-2.5,1.2-3.8,1.2c0,0,0,0,0,0
		c-1,0-1.8-0.3-2.2-0.9c-0.4-0.5-0.6-1.1-0.6-1.9c0-3.1-2.1-6.5-6.6-6.5c0,0,0,0,0,0c-2.6,0-4.9,0.9-6.6,2.6
		c-1.7,1.7-2.6,4.1-2.6,6.7c0,1.9,0.7,3.5,1.9,4.7c1.2,1.2,2.9,1.8,4.7,1.8c0,0,0,0,0,0c3.2,0,5.7-1.1,7.4-3.4
		c1.1,1,2.3,1.1,3.9,1.1c0,0,0,0,0,0c3,0,5.4-0.9,7.6-3c2.1-1.9,3.5-4.9,4.1-7.7l0-0.1l1.3,0.2c0.4,0.1,0.8,0.3,1,0.7
		c0.3,0.4,0.3,1,0.1,1.6l-0.9,2.6c-0.7,2.1-0.6,3.9,0.4,5.3c1.2,1.6,3.5,2.6,6.2,2.6c0,0,0,0,0,0c2.9,0,5.5-0.7,7.5-2l-0.3,1.1
		l0,0.2l4.3,0l1.5-6.5c0.1,2.1,0.8,3.8,1.9,5c1.2,1.2,2.8,1.8,4.8,1.8c0,0,0,0,0,0c2.8,0,5-1.3,7.2-4.3l0.1-0.1L316,89L315.9,89.2z
		 M263.9,91.7c-0.7,0.9-1.7,1.4-2.9,1.4c0,0,0,0,0,0c-1.9,0-2.9-1.7-2.8-3.3c0-2.9,1.6-4.9,4-4.9c0,0,0,0,0,0c1.8,0,2.9,1.2,2.8,3.3
		C264.9,89.6,264.6,90.8,263.9,91.7z"/>
	<path class="st1" d="M255.1,49.4c-0.1,0-8.8-0.5-15.5-0.5c-6.7,0-12.3,3.4-15,9.2c-2.6,5.7-1.8,12.4,2.1,17l3.6-3
		c-2.8-3.3-3.3-8-1.5-12c1.9-4.1,5.8-6.4,10.7-6.4c3.8,0,8.4,0.2,11.5,0.3L231,92c-11.8,23.1-19,25.8-23.3,25.8
		c-1.9,0-2.7-0.8-3.2-1.4c-2.4-3.4-2.3-15.6,8.8-47.5c0.1-0.2,0.1-0.3,0.2-0.5l0,0c0.4-1.2,0.9-2.4,1.3-3.7l-4.9,0
		c-0.2,0.6-0.5,1.3-0.7,1.9c-16.5,38.7-26.5,55.2-33.3,55.2c-0.9,0-1.4-0.3-1.8-1c-1.5-2.3-1.4-9.2,4-20.8c1-2.2,6-13.1,6.3-14.1
		c7-18.9,4-29,0.3-34.1c-3.9-5.3-10.4-8-18.4-7.6c-10,0.5-24.3,7.2-31.8,24.6c-1.7,4-3,7.9-3.9,11.6h-5.2l-1.2-72.7L91.8,7.4
		c-8.9,0-15.7,4-18.4,10.7c-2.4,6-0.7,12.8,4.4,17.6l3.2-3.4c-3.7-3.5-4.9-8.2-3.3-12.4c1.9-4.9,7.2-7.8,14-7.8l22.9,0.1L88.8,53.4
		h-3.1v0.1c-11.4,0-20.7,2.2-27.9,6.4c0.1-0.7,0.2-1.4,0.2-2.1c0.1-4.2-1.4-7.9-4.2-10.2c-3.4-2.7-8.5-4.2-13.8-3.9
		c-5.9,0.3-11.4,2.8-15.5,6.8c-9.3,9.1-12.6,20.7-9.1,31.9c3.4,10.7,12.4,18.7,23.2,20.5c1.3,0.2,2.9,0.4,4.6,0.4
		c8.1,0,20.1-3.4,31.8-19.4L91.3,58h29l0.4,22.4h-20.3v4.7h29.2c-1.2,8-0.3,15,2.8,20.1c2.5,4.3,6.4,6.9,10.7,7.3
		c4.3,0.4,8.2-1.3,11.2-4.7c5-5.8,6.4-15.4,3.9-26.6v-0.9h-22.8c0.8-2.9,1.9-6.2,3.4-9.7c6.7-15.4,19.1-21.3,27.7-21.7
		c4.5-0.2,10.6,0.6,14.3,5.7c4.4,6,4.1,16.3-0.9,29.7c-0.3,0.8-4,8.9-6.2,13.8c-5.3,11.7-6.6,20.7-3.6,25.3c1.3,2,3.4,3.1,5.8,3.1
		c5.2,0,11.1-2.6,23.9-28.2c-2.1,10.4-1.7,17.1,0.8,20.8c1.1,1.6,3.2,3.4,7,3.4c6.1,0,14.7-3.2,27.5-28.3l23.6-44.6L255.1,49.4z
		 M71.3,81.3c-9.5,12.9-20.8,19-32,17.2c-9.1-1.5-16.7-8.3-19.6-17.4c-3-9.5-0.1-19.5,7.9-27.3c7.5-7.3,18.6-6.5,23.3-2.6
		c1.7,1.4,2.6,3.8,2.5,6.6c-0.1,3.1-1.3,6-3.3,8.4c-0.1,0.1-0.3,0.3-0.4,0.4c-0.6,0.7-1.3,1.3-2.1,1.9l2.7,3.6
		c1.2-0.9,2.3-1.9,3.2-3c6.8-7.3,17.6-11,32.1-11V58H86L71.3,81.3z M94.1,53.4l25.4-40.3l0.7,40.3H94.1z M154.1,85.1
		c1.4,8.4,0.1,15.6-3.4,19.7c-1.9,2.3-4.4,3.3-7.2,3.1c-2.8-0.2-5.3-2-7.1-5c-1.4-2.4-3.7-8-2.1-17.7H154.1z"/>
</g>
</svg>
