<?xml version="1.0" encoding="utf-8"?>
<!-- Generator: Adobe Illustrator 19.2.0, SVG Export Plug-In . SVG Version: 6.00 Build 0)  -->
<svg version="1.1" id="Layer_1" xmlns="http://www.w3.org/2000/svg" xmlns:xlink="http://www.w3.org/1999/xlink" x="0px" y="0px"
	 viewBox="0 0 194.6 192.6" style="enable-background:new 0 0 194.6 192.6;" xml:space="preserve">
<style type="text/css">
	.st0{fill:#FFFFFF;}
	.st1{fill:#231F20;}
</style>
<g>
	<g>
		<g>
			<path class="st0" d="M98.6,1.5C41.1,1.5,4.2,38.4,4.2,95.8c0,57.5,36.9,94.4,94.4,94.4c57.5,0,94.4-36.9,94.4-94.4
				C193,38.4,156.1,1.5,98.6,1.5z M98.6,166.4c-44.3,0-70.5-26.2-70.5-70.5c0-44.3,26.2-70.5,70.5-70.5c44.3,0,70.5,26.2,70.5,70.5
				C169.1,140.1,142.9,166.4,98.6,166.4z"/>
		</g>
	</g>
	<g>
		<g>
			<path class="st1" d="M58.2,139h-1.4l0.4-5.8h-2.2v-6h6.7v6L58.2,139z"/>
		</g>
		<g>
			<path class="st1" d="M77.2,152.1v5.3H65.1v-5.3h3.1v-15.4h-3.1v-4.1l4.5-5.4h5.1v24.9H77.2z"/>
		</g>
		<g>
			<path class="st1" d="M98.8,136.6h-6.5v-2.8l-1-1.3h-3.3l-1,1.3v6.6l2-2h5.8l4.3,5.3v8.4l-4.3,5.3h-10l-4.3-5.3v-19.6l4.3-5.3h9.7
				l4.3,5.3V136.6z M87.1,145.3v5.5l1,1.2h3.5l1-1.2v-5.9l-1-1.2h-3.1L87.1,145.3z"/>
		</g>
	</g>
	<g>
		<path class="st1" d="M69.4,17.7l-3.3,1.2l0.7,1.8l1.4-0.5c0.4,1.3-0.1,1.6-0.6,1.8c-0.4,0.1-0.7,0.1-0.9-0.1
			c-0.4-0.3-0.8-0.9-1.1-1.9c-0.8-2.2-0.1-2.7,0.6-3c0.6-0.2,1-0.2,1.5,0.1l0.3,0.2l0.2-2L68,15.4c-0.8-0.5-1.7-0.5-2.7-0.1
			c-1.5,0.5-3.1,2-1.8,5.6c0.6,1.6,1.4,2.7,2.3,3.1c0.4,0.2,0.7,0.3,1.2,0.3c0.4,0,0.8-0.1,1.2-0.2c1.9-0.7,2.6-2.4,1.8-4.6
			L69.4,17.7z"/>
		<path class="st1" d="M74.7,19l0.7-0.2c0.2,0,0.4-0.1,0.5-0.1l1.5,2.4l2.2-0.5l-2-2.8c0.6-0.6,0.8-1.5,0.5-2.8
			c-0.6-2.5-2.1-2.6-4.2-2.1l-2.7,0.6l2,8.6l2.1-0.5L74.7,19z M74.2,17.1L73.7,15l0.7-0.2c1.1-0.3,1.5-0.1,1.7,0.7
			c0.1,0.6,0,0.8-0.1,1c-0.2,0.2-0.5,0.3-1.1,0.5L74.2,17.1z"/>
		<polygon class="st1" points="86.9,19.5 86.6,17.5 83.4,17.9 83.2,16.5 85.8,16.1 85.6,14.2 82.9,14.6 82.7,13.2 85.9,12.8 
			85.7,10.8 80.4,11.5 81.6,20.2 		"/>
		<path class="st1" d="M90.9,17.6l2.6-0.1L94,19l2.2-0.1l-3.4-8.6l-2.2,0.1l-2.4,9l2.2-0.1L90.9,17.6z M91.9,13.2
			C91.9,13.2,91.9,13.2,91.9,13.2C91.9,13.2,91.9,13.2,91.9,13.2l0.9,2.3l-1.4,0.1L91.9,13.2z"/>
		<polygon class="st1" points="96.9,12.1 99.1,12.1 99,18.9 101.2,18.9 101.3,12.2 103.5,12.2 103.5,10.2 96.9,10.1 		"/>
		<path class="st1" d="M113.4,11.1l-2.7-0.4l-1.2,8.7l2.1,0.3l0.3-2.4l0.6,0.1c1.3,0.2,2.2,0.1,2.8-0.3c0.6-0.4,1-1.2,1.2-2.4
			C116.8,12.4,116,11.4,113.4,11.1z M112.5,13l0.6,0.1c0.6,0.1,0.9,0.2,1.1,0.4c0.1,0.1,0.2,0.3,0.1,1c-0.1,0.5-0.2,0.8-0.4,0.9
			c-0.2,0.2-0.6,0.2-1.2,0.1l-0.6-0.1L112.5,13z"/>
		<path class="st1" d="M122.4,12.7l-2.7-0.6l-2,8.6l2.1,0.5l0.6-2.6l0.7,0.2c0.2,0,0.4,0.1,0.5,0.1l0.3,2.8l2.2,0.5l-0.5-3.3
			c0.9-0.3,1.4-1,1.7-2.3C125.8,14,124.5,13.2,122.4,12.7z M121.3,14.5l0.7,0.2c1.1,0.3,1.4,0.5,1.2,1.4c-0.1,0.6-0.4,0.8-0.5,0.8
			c-0.2,0.1-0.6,0.1-1.2-0.1l-0.7-0.2L121.3,14.5z"/>
		<polygon class="st1" points="130.8,15.1 128.7,14.4 126,22.7 128.1,23.4 		"/>
		<path class="st1" d="M133.3,25.6c0.5,0.2,1,0.3,1.5,0.3c0.3,0,0.7-0.1,1-0.2l0.1-0.1l0.2-2.1l-0.4,0.2c-0.5,0.2-0.9,0.2-1.4,0
			c-0.4-0.2-0.6-0.3-0.7-0.6c-0.2-0.5-0.1-1.2,0.4-2.2c1-2.3,1.8-2,2.3-1.8c0.5,0.2,0.8,0.5,0.9,1l0.1,0.4l1.4-1.5l-0.1-0.1
			c-0.3-0.7-0.9-1.3-1.8-1.7c-2.1-0.9-3.8,0.1-4.9,2.9c-0.7,1.6-0.8,2.9-0.4,3.9C131.8,24.7,132.4,25.2,133.3,25.6z"/>
		<polygon class="st1" points="141.9,29.9 142.9,28.1 140.1,26.6 140.8,25.3 143.1,26.6 144.1,24.9 141.8,23.6 142.5,22.4 145.3,24 
			146.3,22.3 141.6,19.6 137.3,27.3 		"/>
		<path class="st1" d="M147.7,29.8c0.7,0.6,0.7,0.8,0.4,1.1c-0.5,0.6-1.1,0.4-1.6,0c-0.6-0.4-0.9-1-0.9-1.7l0-0.4l-1.8,0.8l0,0.2
			c0,1,0.6,2,1.6,2.8c0.5,0.4,1.3,0.8,2.1,0.8c0.7,0,1.5-0.3,2.3-1.3c1.2-1.6,0.6-2.6-0.5-3.7l-0.1-0.1c-0.8-0.8-0.7-0.9-0.6-1.1
			c0.5-0.6,1.2-0.2,1.5,0.1c0.5,0.3,0.7,0.7,0.7,1.3l0,0.4l1.8-0.9l0-0.2c-0.1-0.9-0.5-1.6-1.4-2.2c-1.6-1.2-3.3-1-4.4,0.5
			C145.8,27.5,146.4,28.6,147.7,29.8L147.7,29.8z"/>
		<path class="st1" d="M161.7,38.6c0.5-0.4,0.8-1,0.7-1.7c0-0.6-0.3-1.3-0.7-1.8c-0.5-0.6-1.1-0.9-1.7-1c-0.7-0.1-1.4,0.1-2,0.6
			c-0.4,0.3-0.7,0.7-0.9,1.2c-1-0.3-1.9-0.1-2.6,0.5c-1.3,1.1-1.2,2.9,0.2,4.5c0.6,0.7,1.3,1.2,2,1.4c0.2,0.7,0.6,1.3,1,1.8l0.2,0.3
			l1.5-0.9l0.2-0.2l-0.2-0.2c-0.2-0.3-0.4-0.6-0.6-0.9c0.3-0.1,0.6-0.3,0.9-0.5l0.6,0.7l1.6-1l-2-2.3
			C160.4,39.2,161.1,39.1,161.7,38.6z M158.3,38.5c0.4,0.2,0.9,0.4,1.3,0.5l-0.8,0.7c-0.2,0.2-0.4,0.3-0.6,0.4
			C158.2,39.6,158.2,39,158.3,38.5z M158.9,36.7c0.1-0.2,0.2-0.3,0.3-0.4c0.2-0.2,0.4-0.3,0.6-0.2c0.2,0,0.3,0.1,0.4,0.2
			c0.1,0.1,0.2,0.3,0.2,0.4c0,0.1-0.1,0.2-0.1,0.3C160,37.2,159.5,37,158.9,36.7z M156.4,37.5c-0.2,0.8-0.1,1.7-0.1,2.6
			c0,0-0.2,0-0.2,0c-0.4-0.4-0.6-0.9-0.7-1.4c-0.1-0.4,0.1-0.7,0.3-0.9C156,37.6,156.2,37.5,156.4,37.5z"/>
		<path class="st1" d="M55.6,166.3c0.4-0.6,0.5-1.2,0.3-1.8c-0.2-0.8-0.9-1.4-2-2.1l-2.4-1.4l-4.3,7.6l2.5,1.4
			c0.8,0.5,1.6,0.7,2.2,0.7c0.9,0,1.6-0.5,2.1-1.4c0.5-0.8,0.5-1.6,0.1-2.2C54.7,167.3,55.2,167.1,55.6,166.3z M52.2,168.4
			c-0.2,0.3-0.3,0.4-0.4,0.4c-0.2,0.1-0.6,0-1.1-0.4L50,168l0.8-1.4l0.7,0.4c0.5,0.3,0.8,0.6,0.9,0.8
			C52.4,168,52.3,168.1,52.2,168.4z M52.9,164.1c0.5,0.3,0.8,0.5,0.9,0.8c0,0.1,0,0.2-0.1,0.5c-0.2,0.4-0.4,0.6-1.4,0l-0.6-0.3
			l0.7-1.2L52.9,164.1z"/>
		
			<rect x="53.5" y="168.2" transform="matrix(0.412 -0.9112 0.9112 0.412 -120.2637 152.311)" class="st1" width="8.8" height="2.2"/>
		<path class="st1" d="M65.4,169.6c0.6,0.2,0.9,0.5,1.1,1.1l0.1,0.4l1.4-1.4l-0.1-0.1c-0.3-0.9-1-1.5-2-1.8c-1-0.4-1.9-0.3-2.7,0.1
			c-0.9,0.5-1.7,1.5-2.2,3.1c-0.5,1.5-0.6,2.8-0.2,3.7c0.3,0.8,0.9,1.3,1.8,1.6c0.4,0.2,0.9,0.2,1.3,0.2c0.4,0,0.8-0.1,1.1-0.2
			c0.9-0.4,1.5-1.2,2-2.4l0.6-1.7l-3.3-1.2l-0.7,1.8l1.4,0.5c-0.2,0.5-0.5,0.9-0.8,1c-0.2,0.1-0.5,0.1-0.9,0
			c-0.3-0.1-0.5-0.3-0.6-0.5c-0.2-0.4-0.1-1.2,0.3-2.3C63.7,169.3,64.6,169.3,65.4,169.6z"/>
		<polygon class="st1" points="73.3,172.2 75.4,172.7 74,179.3 76.2,179.7 77.5,173.1 79.7,173.6 80.1,171.6 73.7,170.2 		"/>
		<polygon class="st1" points="80.3,180.5 82.5,180.8 83.7,172.1 81.6,171.8 		"/>
		<path class="st1" d="M89.7,176.4l-2-3.8l-1.9-0.1l-0.6,8.8l2.1,0.2l0.3-4.4c0-0.1,0-0.2,0-0.3c0.1,0.2,0.2,0.3,0.3,0.5l1.5,2.6
			l1.9-2.5c0.1-0.1,0.2-0.2,0.2-0.3c0,0.2,0,0.4,0,0.6l-0.3,4.1l2.1,0.2l0.6-8.8l-1.9-0.1L89.7,176.4z"/>
		<polygon class="st1" points="98.3,179.8 98.3,178.3 101,178.3 100.9,176.4 98.3,176.4 98.3,175 101.5,175 101.5,173 96.1,173 
			96.2,181.8 101.6,181.8 101.5,179.8 		"/>
		<path class="st1" d="M112.8,181c1.1-0.5,2.1-1.7,1.8-4.6l0-0.3c-0.4-3.8-2.6-4.1-3.9-3.9c-0.9,0.1-1.7,0.5-2.2,1.1
			c-0.6,0.8-0.9,2-0.7,3.6l0,0.3c0.4,3,1.7,3.9,2.9,4.1c0.4,1.2,1.8,1.7,3.2,1.7c0.3,0,0.7,0,1-0.1l0.2,0l0.1-1.8l-0.3,0.1
			C113.8,181.2,113.1,181.2,112.8,181z M112.1,178.9c-0.2,0.2-0.4,0.3-0.7,0.3c-0.4,0-1.2,0.1-1.5-2.5l0,0c-0.1-1.2,0-1.9,0.3-2.3
			c0.2-0.2,0.4-0.3,0.7-0.3c0.1,0,0.1,0,0.2,0c0.4,0,1.1,0.3,1.3,2.4C112.5,177.7,112.4,178.5,112.1,178.9z"/>
		<path class="st1" d="M122.4,170.4l-2.1,0.4l1.1,5.6c0.2,0.8-0.1,1.3-0.9,1.5c-0.8,0.1-1.2-0.2-1.4-1l-1.1-5.6l-2.1,0.4l1.1,5.6
			c0.3,1.7,1.4,2.7,3,2.7c0.3,0,0.5,0,0.8-0.1c0.9-0.2,1.7-0.6,2.1-1.2c0.6-0.7,0.7-1.6,0.5-2.7L122.4,170.4z"/>
		<path class="st1" d="M126.3,169.4l-0.5,9.3l2.1-0.6l0-1.7l2.5-0.7l0.9,1.4l2.1-0.6l-5.1-7.8L126.3,169.4z M129.4,174.1l-1.4,0.4
			l-0.1-3c0,0,0,0,0,0c0,0,0.1,0,0.1,0L129.4,174.1z"/>
		<polygon class="st1" points="136.7,173.4 134.5,167 132.5,167.7 135.3,176 140.2,174.4 139.6,172.5 		"/>
		<polygon class="st1" points="138.8,165.5 142,173.7 144.1,172.9 140.8,164.7 		"/>
		<polygon class="st1" points="148.9,163.1 148,161.3 142.1,164.2 143,166 145,165 148.1,171.1 150,170.1 146.9,164.1 		"/>
		<polygon class="st1" points="154.6,156.7 152.7,158 153.5,161.8 150.3,159.7 148.4,161.1 154.1,164.4 155.7,166.7 157.5,165.4 
			155.9,163.2 		"/>
	</g>
	<g>
		<path class="st1" d="M188.7,132.7c-0.2-0.5-13.9-32.3-13.9-32.3l14.6-39.6l0-0.1c0.8-2.6,0.8-5.2-0.8-6.5c-1.7-1.5-3.4-2-6.7-1
			c-9.4,2.9-20.3,4-32,4c-12.5,0-24.7-1.9-34.8-5.4c-1.1-0.4-2.3,0.4-2.3,1.6l-1.8,72.6c0,1-0.8,1.8-1.8,1.8c-2.4,0-4,1.3-4.5,3.5
			c-1,4.7,3.2,8.9,7.5,10.8c1.1,0.5,2.3,1,3.5,1.5c9.8,3.7,21.8,5.6,34.8,5.6c10.1,0,21.2-0.3,33.7-4.6
			C188.8,142.8,190.9,137.9,188.7,132.7z"/>
		<g>
			<path class="st1" d="M23.9,123c-0.2,0.2-0.4,0.3-0.6,0.4V162l0.2,12.8c0,2.7,2,4.4,4.6,5.4c4.6,1.8,9.4-1,9.5-5.2v-48.9
				c-0.1-0.1-0.2-0.3-0.2-0.5C37.3,120.6,30.9,117.4,23.9,123z"/>
			<path class="st1" d="M76.1,27.9c-9.4-0.7-19.5,1.3-30,5c-2.8,1-4.7,3.7-4.7,6.6l0,0.2c-1.1-1-2.8-1.6-5-1.5l-0.1-10.4
				c0-2.7-1.5-5.4-4.1-6.4c-4.9-1.9-10,1.3-9.9,5l0.1,11C17.1,35.1,12,36.3,4,35.1c-1-0.1-2,0.2-2.5,1c-0.6,0.7-0.7,1.7-0.4,2.6
				c3.2,8.2,9.4,9.4,16.2,9.2c-3.8,2.5-6.9,5.7-9.1,9.3c-0.4,0.7-0.4,1.7,0.1,2.4l0.1,0.1c0.4,0.6,1,0.9,1.7,0.9
				c7.6,0.5,13.9-3.2,18.7-7.6c0.8,2.6,3.3,3.2,5.4,1.5c3.7-3,6-3.2,7.2-2.1l0.3,45.4c-1-0.8-2.5-1.3-4.5-1.3l-0.6-30.5
				c-0.2-4.9-6.5-8-13.4-2.5c-0.2,0.2-0.4,0.3-0.6,0.4l0.6,33.9c-5.3-2.4-10.5-1.2-18.6-2.5c-1-0.1-2,0.2-2.5,1
				c-0.6,0.7-0.7,1.7-0.4,2.6c3.2,8.2,9.4,9.4,16.2,9.2c-3.8,2.5-6.9,5.7-9.1,9.3c-0.4,0.7-0.4,1.7,0.1,2.4l0.1,0.1
				c0.4,0.6,1,0.9,1.7,0.9c7.3,0.5,13.3-2.8,18-7c1.4-0.2,2.8,0,4.9,0.3c2.1,0.3,3.9-0.9,3.9-3.3l0-0.7c1.8-0.4,3.3,0.1,4.3,1
				l0.1,11c0,1.2,0.7,2.2,1.9,2.6l0,0c0.5,0.2,1.2,0.3,2.1,0c10.8-3.8,19.9-5.5,29.6-5.5c12.3,0,19.4,1.3,26.5,4
				c2.8,0.9,4.8,2.1,4.8-0.6l1-72C109.1,39.2,96,29.5,76.1,27.9z"/>
		</g>
	</g>
</g>
<path class="st0" d="M101.9,123.4C101.9,123.4,102.5,123.6,101.9,123.4L101.9,123.4z"/>
<path class="st0" d="M54.9,44.2l5,27.5l7.7-1l5.8-28.9l-5.9,0.7l-2.5,18.3c-0.1,0.4-0.4,0.8-0.8,0.8l-0.2,0c-0.2,0-0.5,0-0.7-0.2
	c-0.2-0.2-0.3-0.4-0.4-0.6l-1.9-17.5L54.9,44.2z"/>
<path class="st0" d="M81.3,70.2l13.6,1.9l0-4.8l-7.3-1c-0.5-0.1-0.8-0.5-0.8-0.9l0-5.3c0-0.3,0.1-0.5,0.3-0.7
	c0.2-0.2,0.5-0.3,0.7-0.2l6.3,0.9l0-4.3l-6.5-0.9c-0.5-0.1-0.8-0.5-0.8-0.9l0-5.2c0-0.3,0.1-0.5,0.3-0.7c0.2-0.2,0.5-0.3,0.7-0.2
	l7,1l0-4.7L81.4,42L81.3,70.2z"/>
<path class="st0" d="M64.3,78.6c-0.6,0-1.2,0-1.9,0.1l-0.3,0c-5.2,0.6-7.8,3.5-7.9,8.4L54,101.8l0,0c0,2.4,0.5,4.1,1.6,5.1
	c1.2,1.1,3.1,1.4,5.8,1.1l0.3,0c5.5-0.7,8.1-3.4,8.2-8.4l0.1-4.6l-5.5,0.7l-0.1,4.6c0,1.6-1,2.8-2.3,3c-0.7,0.1-1.3-0.1-1.8-0.5
	c-0.4-0.3-0.8-1-0.8-2.1l0.2-14.1c0-1.6,1-2.8,2.4-3c0.9-0.1,1.5,0.2,1.8,0.5c0.4,0.3,0.8,1,0.8,2.2l-0.1,3.7l5.5-0.7l0.1-4.3
	c0-2.3-0.5-4-1.6-5C67.6,79,66.2,78.6,64.3,78.6z"/>
<path class="st0" d="M85.5,78.2c-1.7,0-3.1,0.4-4.1,1.2c-1.2,1-1.8,2.8-1.8,5.2l0,14.2l0,0c0,5.1,2.6,8,8.1,8.8l0.2,0
	c2.8,0.4,4.8,0,6.1-1c1.2-1,1.8-2.8,1.8-5.2l0-14.2c0-5.1-2.7-8-8.1-8.8l-0.2,0C86.8,78.3,86.1,78.2,85.5,78.2z M88,102.9
	c-0.1,0-0.3,0-0.4,0c0,0,0,0,0,0l-0.1,0c-1.5-0.2-2.4-1.3-2.4-2.9l0-14.2c0-0.8,0.3-1.6,0.8-2c0.5-0.4,1.1-0.6,1.9-0.5
	c1.5,0.2,2.4,1.4,2.4,3l0,14.2c0,1.1-0.4,1.7-0.8,2C89.2,102.6,88.7,102.9,88,102.9z"/>
<path class="st0" d="M92.8,185.2"/>
<path class="st0" d="M136.4,100l5.8,0.9c-0.3-0.8-0.6-1.9-0.8-3.4l-0.7-4.3c-0.3-2.2-1-3.5-2.2-4.4c-0.3-0.2-0.5-0.6-0.4-0.9
	s0.3-0.7,0.7-0.8c1.8-0.5,2.6-1.8,2.7-4l0-4c0-4.5-2-7-6.3-7.6l-9.5-1.4l-0.2,28.2l5.5,0.8l0.1-9.1c0-0.3,0.1-0.5,0.3-0.7
	c0.2-0.2,0.5-0.3,0.7-0.2l0.3,0c2.2,0.3,2.5,1.6,2.8,3.4l0.4,3.1C135.7,97.9,136,99.2,136.4,100z M133.4,85c-0.1,0-0.3,0-0.4,0
	l-1.3-0.2c-0.5-0.1-0.8-0.5-0.8-0.9l0-7c0-0.3,0.1-0.5,0.3-0.7c0.2-0.2,0.5-0.3,0.7-0.2l1.3,0.2c1.5,0.2,2.6,1.5,2.6,3.1l0,2.9
	c0,1.3-0.5,2-0.9,2.3C134.5,84.8,134,85,133.4,85z"/>
<path class="st0" d="M148.7,72.9l6.1,19.5c0,0.1,0,0.2,0,0.3l0,7.6l5.5-0.8l0-7.9c0-0.1,0-0.2,0-0.3l6-20.9l-5.8,0.8l-2.1,12.1
	c-0.1,0.4-0.4,0.7-0.8,0.8l-0.2,0c-0.5,0.1-1-0.3-1.1-0.8l-2-11.2L148.7,72.9z"/>
<path class="st0" d="M125.4,127.4c0,5.1,2.6,8,8,8.8l0.2,0c2.8,0.4,4.8,0.1,6.1-1c1.2-1,1.8-2.7,1.8-5.2l0.1-14.2
	c0-5.1-2.7-8.1-8-8.8l-0.2,0c-2.7-0.4-4.7,0-6,1.1c-1.2,1-1.8,2.8-1.8,5.2L125.4,127.4z M133.8,131.5c-0.1,0-0.3,0-0.4,0
	c0,0,0,0,0,0l-0.1,0c-1.5-0.2-2.4-1.3-2.4-2.9l0.1-14.2c0-0.8,0.3-1.5,0.8-2c0.5-0.4,1.1-0.6,1.9-0.5c1.5,0.2,2.4,1.4,2.4,3L136,129
	c0,1.1-0.4,1.7-0.8,2C135,131.2,134.5,131.5,133.8,131.5z"/>
<path class="st0" d="M152.2,108.4l0,28.2l11.5-1.6l0-4.8l-4.9,0.7c-0.3,0-0.5,0-0.7-0.2c-0.2-0.2-0.3-0.4-0.3-0.7l0-22.3
	L152.2,108.4z"/>
</svg>
