<?xml version="1.0" encoding="utf-8"?>
<!-- Generator: Adobe Illustrator 19.2.0, SVG Export Plug-In . SVG Version: 6.00 Build 0)  -->
<svg version="1.1" id="Layer_1" xmlns="http://www.w3.org/2000/svg" xmlns:xlink="http://www.w3.org/1999/xlink" x="0px" y="0px"
	 viewBox="0 0 194.6 197.7" style="enable-background:new 0 0 194.6 197.7;" xml:space="preserve">
<style type="text/css">
	.st0{fill:#FFFFFF;}
	.st1{fill:#221F1F;}
	.st2{fill:#231F20;}
</style>
<g>
	<g>
		<g>
			<path class="st0" d="M97.2,13C42.5,13,7.3,48.2,7.3,102.9s35.2,89.9,89.9,89.9s89.9-35.2,89.9-89.9S151.9,13,97.2,13z"/>
		</g>
	</g>
	<g>
		<path class="st1" d="M160.8,176.9l-4.6-82.5c-0.1-1.2,1.5-1.9,2.3-0.9l4.8,5.5c3,3.5,8.3,3.7,11.6,0.5l16.7-17.8
			c3.5-3.4,3.9-8.9,0.9-12.7l-22.4-27.7c-7.4-8.6-15.5-12.2-27.1-13.8l-13.5-2.8l-4.2-2c-1.9-0.9-4-0.1-5,1.7
			c-2.9,5.4-12.2,9-22.6,9h-0.4c-10.4,0-19.7-3.6-22.6-9c-1-1.8-3.2-2.6-5-1.7l-4.2,2L52,27.5c-11.8,1.6-20,5.2-27.4,13.8L2.2,69
			c-3.1,3.8-2.7,9.3,0.9,12.7l16.7,17.8c3.3,3.2,8.6,2.9,11.6-0.5l4.8-5.5c0.8-0.9,2.4-0.3,2.3,0.9l-4.6,82.5
			c-0.2,5.4,4,9.8,9.4,9.8h108.2C156.8,186.7,161.1,182.2,160.8,176.9z"/>
	</g>
	<g>
		<g>
			<path class="st0" d="M76.6,73.1v2.5c-1,0.1-1.9,1.3-2.1,3.8l-3.1,21.3c-0.1,1.1-0.1,2.1-0.1,2.7c0,1.5,0.7,2,2.3,2v2.5h-4.1
				c-2.7,0-4.1-1.1-4.5-2.9h-0.3c-0.2,1.8-1.4,2.9-4.1,2.9h-3.4v-2.5c2.1,0,2.7-0.8,2.5-2.9l-1.1-8.8c-0.3-2.6,0.5-3.5,2-4.2
				l-0.1-0.2c-1.8-0.7-2.5-0.8-2.9-3.4L56,78.2c-0.2-1.9-0.7-2.6-2.1-2.6v-2.5h2.6c2.7,0,4.1,1.1,4.5,2.9h0.3
				c0.2-1.8,1.4-2.9,4.1-2.9h1.9v2.5c-1.3,0-1.6,0.8-1.4,2.9l0.5,7.2c0.2,2.7-0.5,2.8-1.9,3.6l0.1,0.2c1.8,0.8,2.3,1.8,2.1,4.5
				l-0.5,4.1H67l0.8-5.8c0.2-1.6,0.7-2.2,1.9-2.6l0.1-0.4c-1.1-0.5-1.4-1.7-1.2-3.3l0.9-6.8c0.2-2.4-0.4-3.6-1.4-3.6v-2.5h1.7
				c1.7,0,2.2,1,2.4,2.5h0.3c0.4-1.6,1.2-2.5,3-2.5L76.6,73.1L76.6,73.1z M60.1,85.4c0.1-1.3-0.6-4.5-0.9-5.8H59
				c-0.1,1.1,0.6,4.6,0.9,5.8H60.1z M61.8,101.5c0-2-0.6-6.8-1-8.3h-0.2c0,2,0.6,6.8,1,8.3H61.8z M62.1,86.7
				c0.1-1.7-0.7-7.2-0.9-8.7H61c-0.1,1.7,0.7,7.2,0.9,8.7H62.1z M63.8,102.8c0.1-2.1-0.7-8.6-1.2-11.1h-0.2
				c0.1,2.7,0.8,8.7,1.2,11.1H63.8z M63.9,86.2c0.2-1.1-0.4-5.7-0.7-6.8L63,79.5c-0.1,1.3,0.5,5.2,0.7,6.7H63.9z M64.9,95.5
				c0-0.6-0.2-2.3-0.4-2.6L64.2,93c0,0.4,0.2,2,0.4,2.6L64.9,95.5z M69.1,102.5l-0.7-0.7l-0.6,0.7l0.7,0.7L69.1,102.5z M70.3,92.9
				l-0.2-0.1c-0.4,1.6-1.2,5.3-1.1,7h0.2C69.6,98.1,70.4,94.4,70.3,92.9z M72,80.3l-0.3-0.1c-0.4,1.6-1,4.3-0.9,6H71
				C71.5,84.7,72.1,81.9,72,80.3z M72.7,78.4l-0.6-0.7l-0.7,0.6l0.7,0.7L72.7,78.4z"/>
			<path class="st2" d="M73.8,108.2h-4.3c-2.5,0-4-0.9-4.6-2.7c-0.4,1.8-1.8,2.7-4.3,2.7h-3.7v-3h0.2c1,0,1.6-0.2,1.9-0.6
				c0.3-0.4,0.4-1,0.3-2l-1.1-8.8c-0.3-2.6,0.5-3.6,1.9-4.4l-0.2-0.1c-1.5-0.6-2.3-0.9-2.6-3.4l-1.6-7.7c-0.2-1.9-0.7-2.4-1.9-2.4
				h-0.2v-3h2.8c2.5,0,4,0.9,4.6,2.7c0.4-1.8,1.8-2.7,4.3-2.7h2.1v3h-0.2c-0.4,0-0.7,0.1-0.9,0.3c-0.3,0.3-0.4,1-0.3,2.3l0.5,7.2
				c0.2,2.5-0.4,3-1.7,3.7h-0.1c1.8,0.8,2.3,2,2.1,4.6l-0.4,3.8h0.3l0.8-5.6c0.2-1.6,0.7-2.3,1.9-2.8l0,0c-1.3-0.7-1.3-2.3-1.2-3.5
				l0.9-6.8c0.1-1.5,0-2.5-0.5-3c-0.2-0.2-0.4-0.3-0.7-0.3h-0.2v-3h2c1.8,0,2.4,1,2.6,2.2c0.5-1.5,1.5-2.2,3.1-2.2h1.5v3h-0.2
				c-1,0.1-1.7,1.4-1.9,3.6l-3.1,21.3c-0.1,1.1-0.1,2.1-0.1,2.7c0,1.3,0.5,1.7,2.1,1.7h0.2v3.2L73.8,108.2L73.8,108.2z M64.5,104.7
				h0.7v0.2c0.4,1.8,1.8,2.7,4.2,2.7h3.8v-2c-1.7-0.1-2.3-0.7-2.3-2.2c0-0.7,0-1.7,0.1-2.8l3.1-21.3c0.4-3,1.4-3.8,2.1-4v-2.1h-1
				c-1.5,0-2.4,0.7-2.7,2.3v0.2h-0.7v-0.2c-0.2-1.4-0.6-2.3-2.1-2.3h-1.5v2c0.3,0.1,0.6,0.2,0.8,0.4c0.5,0.6,0.7,1.8,0.6,3.4l-0.9,7
				c-0.2,1.7,0.1,2.6,1,3l0.2,0.1l-0.1,0.7h-0.1c-1.1,0.4-1.5,0.9-1.7,2.4l-0.9,6h-1.3l0.5-4.4c0.2-2.5-0.2-3.5-1.9-4.2h-0.1
				l-0.1-0.5l0.5-0.3c1.2-0.6,1.6-0.9,1.4-3.2l-0.5-7.2c-0.1-1.3,0-2.2,0.4-2.7c0.2-0.2,0.5-0.4,1-0.4v-2h-1.6
				c-2.4,0-3.7,0.9-3.9,2.7v0.2h-0.7V76c-0.4-1.8-1.8-2.7-4.2-2.7h-2.3v2c1.5,0.1,1.9,1.1,2.1,2.8l1.6,7.7c0.3,2.2,0.9,2.5,2.3,3
				l0.5,0.2l0.1,0.6l-0.2,0.1c-1.4,0.7-2.2,1.5-1.9,4l1.1,8.8c0.1,1.2,0,1.9-0.5,2.4c-0.4,0.5-1.1,0.7-2.1,0.7v2h3.2
				c2.4,0,3.7-0.9,3.9-2.7L64.5,104.7z M68.5,103.5l-1-1l0.9-1l1,1L68.5,103.5z M68.2,102.5l0.3,0.3l0.3-0.3l-0.3-0.3L68.2,102.5z
				 M64,103h-0.7v-0.2c-0.4-2.5-1.1-8.5-1.2-11.2v-0.3h0.7v0.2c0.5,2.5,1.3,9,1.2,11.2V103z M62.7,94c0.2,2.1,0.5,4.7,0.7,6.7
				C63.3,98.7,63,96.1,62.7,94z M61.4,101.9l-0.1-0.2c-0.4-1.6-1-6.5-1-8.4V93H61l0.1,0.2c0.4,1.5,1,6.4,1,8.3v0.2L61.4,101.9z
				 M60.9,95c0.1,1.5,0.3,3.4,0.6,4.8C61.3,98.3,61.1,96.4,60.9,95z M69.4,100.1h-0.7v-0.2c-0.1-1.8,0.7-5.6,1.1-7.1l0.1-0.2
				l0.7,0.2V93C70.7,94.7,69.8,98.5,69.4,100.1L69.4,100.1z M70,94.3c-0.3,1.2-0.5,2.6-0.7,3.9C69.6,97,69.8,95.6,70,94.3z
				 M64.4,95.8l-0.1-0.2C64.2,95,64,93.4,64,93v-0.2l0.6-0.2l0.1,0.2c0.2,0.4,0.5,2.1,0.5,2.7v0.2L64.4,95.8z M62.3,87h-0.7v-0.2
				c-0.3-1.4-1.1-7-1-8.8v-0.2h0.7V78c0.3,1.5,1.1,7.1,1,8.8V87z M61.2,80.1c0.1,1.4,0.3,3.1,0.5,4.5C61.6,83.3,61.4,81.5,61.2,80.1
				z M71.2,86.5h-0.7v-0.2c-0.1-1.7,0.6-4.6,0.9-6.1l0.1-0.2l0.7,0.1v0.2c0.1,1.7-0.6,4.7-1,6V86.5z M71.7,81.4
				c-0.2,1.1-0.5,2.4-0.6,3.6C71.4,83.8,71.6,82.5,71.7,81.4z M64.1,86.5l-0.7-0.2v-0.2c0-0.2-0.9-5.2-0.7-6.7v-0.2l0.6-0.2l0.1,0.2
				c0.3,1.1,0.9,5.7,0.7,6.9L64.1,86.5z M63.3,81.1c0.1,0.9,0.2,2,0.4,3.1C63.6,83.1,63.4,82,63.3,81.1z M60.3,85.6h-0.7l-0.1-0.2
				c-0.3-1.2-1.1-4.7-1-5.9v-0.2h0.7l0.1,0.2c0.3,1.1,1.1,4.5,1,5.9V85.6z M59.2,80.9c0.1,1,0.4,2.2,0.6,3.2
				C59.7,83.1,59.5,81.9,59.2,80.9z M72.1,79.4l-1-1.1l1-0.9l0.9,1L72.1,79.4z M71.8,78.3l0.3,0.3l0.3-0.3L72,78.1L71.8,78.3z"/>
		</g>
		<g>
			<path class="st0" d="M86.9,88.5h1.2c1.4,0,2.1-0.4,2.8-3.2l0.2-0.1H95c-0.5,3.5-0.5,4.9,0,8.4h-3.8L91,93.8
				c-0.6-1.8-1.4-2.2-2.5-2.2H87v8.6c0,1.4,0.3,2.3,1.3,2.3c1.1,0,1.7-0.8,2-2.6l1.1-4.6h3.8l0.6,9c0.1,0.9,0.4,1.4,1.4,1.4v2.1
				l-6.4,0.8h-0.4c-2.3,0-4.4-1.4-4.8-4.1h-0.4c-0.4,2-1.7,3.3-3.5,3.3H77v-2.5c1.4,0,2-0.8,2-2.3v-8.8c0-2.7,0.8-3.7,2.4-4.5v-0.2
				C79.8,88.8,79,88.7,79,86v-8.2c0-1.5-0.6-2.3-2-2.3V73h4.5c1.8,0,3.2,1.3,3.6,3.3h0.4c0.4-2.7,2.6-4.1,4.8-4.1h0.4l6.4,0.8v2.1
				c-1,0-1.3,0.5-1.4,1.4l-0.6,7h-3.9l-1.1-3c-0.5-1.7-0.8-2.1-1.9-2.1c-1,0-1.3,0.5-1.3,1.9V88.5z M81.2,85.7
				c0.1-1,0.2-2.1,0.2-4.2s-0.1-2.9-0.2-3.8H81c-0.1,1-0.2,1.7-0.2,3.8c0,2.1,0.1,3.2,0.2,4.2H81.2z M81.2,103.3
				c0.1-1.1,0.2-2.5,0.2-4.8s-0.1-3.7-0.2-4.8H81c-0.1,1.1-0.2,2.5-0.2,4.8s0.1,3.7,0.2,4.8H81.2z M83.1,87.2
				c0.1-0.7,0.2-2.9,0.2-5.6s-0.1-4.1-0.2-5.3h-0.2c-0.1,1.2-0.2,2.6-0.2,5.3s0.1,5,0.2,5.6H83.1z M83.1,104.8
				c0.1-1.3,0.2-3.3,0.2-6.2s-0.1-4.4-0.2-6.2h-0.2c-0.1,1.9-0.2,3.3-0.2,6.2s0.1,4.9,0.2,6.2H83.1z M85,85.7
				c0.1-0.8,0.2-1.7,0.2-3.5s-0.1-2.2-0.2-3h-0.2c-0.1,0.8-0.2,1.2-0.2,3s0.1,2.6,0.2,3.5H85z M85,101.4c0.1-0.9,0.2-1.9,0.2-3.8
				s-0.1-2.9-0.2-3.8h-0.2c-0.1,0.9-0.2,1.9-0.2,3.8s0.1,2.9,0.2,3.8H85z M92.8,89.7L92.1,89l-0.7,0.7l0.7,0.7L92.8,89.7z
				 M92.1,79.7c0.1-0.3,0.1-0.2,0.1-1c0-0.7,0-1.1-0.1-1.4h-0.2c-0.1,0.3-0.1,0.6-0.1,1.4s0,0.7,0.1,1H92.1z M92.2,103.6
				c0.1-0.4,0.1-0.8,0.1-1.6c0-0.8,0-1.2-0.1-1.5H92c-0.1,0.4-0.1,0.8-0.1,1.5c0,0.8,0,1.2,0.1,1.6H92.2z M93.7,75.7L93,75l-0.7,0.7
				l0.7,0.7L93.7,75.7z M93.8,105.3l-0.6-0.7l-0.7,0.7l0.6,0.7L93.8,105.3z M93.6,82.1c0.1-0.4,0.2-0.5,0.2-1.5s-0.1-1.5-0.2-1.9
				h-0.2c-0.1,0.4-0.2,0.9-0.2,1.9s0.1,1.1,0.2,1.5H93.6z M93.6,102.4c0.1-0.5,0.2-1.2,0.2-2.3c0-1.1-0.1-1.8-0.2-2.2h-0.2
				c-0.1,0.5-0.2,1.1-0.2,2.2s0.1,1.8,0.2,2.3H93.6z"/>
			<path class="st2" d="M90.3,109c-2.1,0-4.4-1.2-5-4c-0.5,2-1.8,3.1-3.6,3.1h-4.8v-3H77c1.2,0,1.7-0.6,1.7-2v-8.8
				c0-2.7,0.9-3.8,2.4-4.6l-0.2-0.1c-1.4-0.6-2.2-1-2.2-3.6v-8.2c0-1.4-0.5-2-1.7-2h-0.2v-3h4.7c1.8,0,3.3,1.3,3.8,3.2
				c0.6-2.8,2.9-4,5-4h0.4l6.7,0.8v2.6h-0.2c-0.8,0-1.1,0.3-1.1,1.1l-0.6,7.3h-4.3l-1.1-3.2c-0.5-1.7-0.8-2-1.7-2
				c-0.8,0-1.1,0.2-1.1,1.6v7.9h0.9c1.3,0,1.9-0.3,2.6-3V85l0.4-0.1h4.1v0.3c-0.5,3.5-0.5,4.8,0,8.3v0.3h-4l-0.4,0.3l-0.1-0.3
				c-0.6-1.7-1.3-2-2.3-2h-1.2v8.3c0,1.8,0.6,2.1,1.1,2.1c0.9,0,1.4-0.7,1.8-2.4l1.1-4.8h4.3l0.6,9.2c0.1,0.8,0.4,1.1,1.1,1.1h0.2
				v2.6l-6.8,1.1H90.3z M84.9,104.4h0.8v0.2c0.4,2.7,2.6,3.9,4.6,3.9h0.4l6.2-0.8V106c-0.9-0.1-1.3-0.6-1.4-1.6l-0.6-8.7h-3.4
				l-1,4.4c-0.3,1.4-0.8,2.8-2.3,2.8c-1.6,0-1.6-1.9-1.6-2.6v-8.8h1.7c1.3,0,2.1,0.6,2.6,2.1l0,0h3.6c-0.5-3.3-0.5-4.6,0-7.9h-3.6
				c-0.7,2.8-1.5,3.2-3,3.2h-1.4v-8.4c0-1.3,0.3-2.1,1.6-2.1c1.3,0,1.7,0.7,2.2,2.3l1,2.8h3.5l0.6-6.8c0.1-1,0.5-1.5,1.4-1.6v-1.7
				l-6.2-0.8h-0.4c-2,0-4.2,1.2-4.6,3.9v0.2h-0.8v-0.2c-0.3-1.9-1.6-3.1-3.3-3.1h-4.2v2c1.3,0.1,2,0.9,2,2.5V86
				c0,2.3,0.6,2.6,1.9,3.2l0.5,0.3V90l-0.1,0.1c-1.5,0.7-2.3,1.6-2.3,4.3v8.8c0,1.6-0.7,2.4-2,2.5v2h4.3c1.7,0,2.9-1.2,3.2-3.1
				L84.9,104.4z M93.1,106.3l-0.9-1l1-1l0.9,1L93.1,106.3z M92.9,105.3l0.3,0.3l0.3-0.3l-0.3-0.3L92.9,105.3z M83.3,105h-0.7v-0.2
				c-0.1-1.4-0.2-3.3-0.2-6.3c0-2.9,0.1-4.4,0.2-6.2v-0.2h0.7v0.2c0.1,1.8,0.2,3.3,0.2,6.2c0,2.9-0.1,4.9-0.2,6.3V105z M83,94.9
				c0,1,0,2.1,0,3.6s0,2.8,0,3.8c0-1.1,0-2.3,0-3.8S83,95.9,83,94.9z M92.4,103.8h-0.6l-0.1-0.2c-0.1-0.4-0.1-0.8-0.1-1.7
				c0-0.8,0-1.2,0.1-1.6l0.1-0.2h0.6l0.1,0.2c0.1,0.4,0.1,0.8,0.1,1.6c0,0.8,0,1.3-0.1,1.7L92.4,103.8z M81.4,103.6h-0.7v-0.2
				c-0.1-1.1-0.2-2.6-0.2-4.8c0-2.2,0.1-3.7,0.2-4.8v-0.2h0.7v0.2c0.1,1.1,0.2,2.6,0.2,4.8s-0.1,3.7-0.2,4.8V103.6z M81.1,95.6
				c0,0.8,0,1.8,0,3s0,2.2,0,3c0-0.8,0-1.8,0-3S81.1,96.4,81.1,95.6z M93.8,102.6h-0.6v-0.2c-0.2-0.5-0.2-1.2-0.2-2.3
				s0.1-1.8,0.2-2.3v-0.2h0.6v0.2c0.1,0.5,0.2,1.2,0.2,2.3C94,101.2,93.9,102,93.8,102.6L93.8,102.6z M93.5,98.7c0,0.4,0,0.8,0,1.4
				s0,1.1,0,1.4c0-0.4,0-0.9,0-1.4C93.5,99.5,93.5,99,93.5,98.7z M85.2,101.7h-0.7v-0.2c-0.1-0.8-0.2-1.8-0.2-3.9s0.1-3,0.2-3.9
				v-0.2h0.7v0.2c0.1,0.8,0.2,1.8,0.2,3.9s-0.1,3-0.2,3.9V101.7z M84.9,95.2c0,0.6,0,1.3,0,2.4s0,1.8,0,2.4c0-0.6,0-1.3,0-2.4
				S84.9,95.8,84.9,95.2z M92.1,90.7l-1-1l1-1l1,1L92.1,90.7z M91.8,89.7l0.3,0.3l0.3-0.3l-0.3-0.3L91.8,89.7z M83.3,87.4h-0.7v-0.2
				c-0.1-0.6-0.2-2.8-0.2-5.7c0-2.5,0.1-4,0.2-5.3V76h0.7v0.2c0.1,1.3,0.2,2.8,0.2,5.3c0,2.9-0.1,5-0.2,5.7V87.4z M83,78.3
				c0,0.8,0,1.8,0,3.3c0,1.4,0,2.7,0,3.7c0-1,0-2.2,0-3.7C83,80.1,83,79.1,83,78.3z M85.2,86h-0.7v-0.2c-0.1-0.8-0.2-1.6-0.2-3.5
				c0-1.8,0.1-2.2,0.2-3.1V79h0.7v0.2c0.1,0.8,0.2,1.3,0.2,3.1c0,1.9-0.1,2.7-0.2,3.5V86z M84.9,80.3c0,0.4,0,1,0,1.9s0,1.6,0,2.2
				c0-0.5,0-1.2,0-2.2C85,81.3,84.9,80.8,84.9,80.3z M81.4,86h-0.7v-0.2c-0.1-1-0.2-2.3-0.2-4.2c0-2,0.1-2.8,0.2-3.8v-0.2h0.7v0.2
				c0.1,1,0.2,1.8,0.2,3.8s-0.1,3.2-0.2,4.2V86z M81.1,79.1c0,0.6,0,1.3,0,2.4s0,1.9,0,2.6c0-0.7,0-1.5,0-2.6
				C81.1,80.5,81.1,79.7,81.1,79.1z M93.8,82.3h-0.6L93.1,82C93,81.7,93,81.5,93,80.6c0-1,0.1-1.5,0.2-2l0.1-0.2h0.6l0.1,0.2
				c0.1,0.5,0.2,1,0.2,2c0,0.9,0,1.1-0.2,1.5L93.8,82.3z M93.5,79.3c0,0.3,0,0.7,0,1.2s0,0.8,0,1c0-0.2,0-0.4,0-1
				C93.5,80,93.5,79.6,93.5,79.3z M92.2,79.9h-0.6l-0.1-0.2c-0.1-0.2-0.1-0.3-0.1-1s0-1.1,0.1-1.4l0.1-0.2h0.6l0.1,0.2
				c0.1,0.3,0.1,0.7,0.1,1.4c0,0.7,0,0.7-0.1,1L92.2,79.9z M93,76.7l-1-1l1-1l1,1L93,76.7z M92.7,75.7L93,76l0.3-0.3L93,75.4
				L92.7,75.7z"/>
		</g>
		<g>
			<path class="st0" d="M121.6,105.1v2.8c-0.4,0.4-1.7,1.5-3.5,1.5c-4.2,0-6.5-3.3-6.5-7.4v-6.6c0-1.4-0.7-2.3-1.9-2.3h-1v10.1
				c0,1.5,0.6,2.3,2,2.3v2.5h-1.5c-2.7,0-4-1.1-4.3-2.9h-0.5c-0.3,1.8-1.6,2.9-4.3,2.9h-1.5v-2.5c1.4,0,2-0.8,2-2.3v-7.8
				c0-2.7,0.8-3.7,2.4-4.5v-0.2c-1.6-0.8-2.4-1.8-2.4-4.5V78c0-1.5-0.6-2.3-2-2.4v-2.5h4.7c2.6,0,3.8,1.3,4.2,3.3h0.4
				c0.5-2.8,2.9-4.4,5.4-4.4h1.6c0.1,2.7,1.5,4.4,6.2,4.4v2.4c-0.8,0-1.1,0.5-1.1,1.3c0,1.9-0.7,1.7-2.4,2.4v0.2
				c1.7,0.7,2.4,1.4,2.4,3.1c0,0.9,0.4,0.9,1.1,0.9v2.4c-2.8,0-4.1,0.7-5.2,2c1.1,1.4,2.3,2.3,5,2.3v2.4c-0.8,0-1.1,0.5-1.1,1.4v6.2
				C119.6,105.2,120.2,105.5,121.6,105.1z M103,81.9c0-2.1-0.1-3-0.2-3.9h-0.2c-0.1,1-0.2,1.8-0.2,3.9c0,2.2,0.1,3.5,0.2,4.5h0.2
				C103,85.4,103,84.1,103,81.9z M103,98.3c0-1.8-0.1-2.7-0.2-3.5h-0.2c-0.1,0.8-0.2,1.7-0.2,3.5c0,1.7,0.1,2.4,0.2,3.2h0.2
				C103,100.7,103,100,103,98.3z M104.9,81.9c0-2.7-0.1-4.2-0.2-5.4h-0.2c-0.1,1.2-0.2,2.6-0.2,5.4s0.1,5.3,0.2,5.9h0.2
				C104.9,87.2,104.9,84.7,104.9,81.9z M104.9,98.3c0-2.4-0.1-3.4-0.2-5h-0.2c-0.1,1.6-0.2,2.6-0.2,5c0,2.3,0.1,3.6,0.2,4.6h0.2
				C104.9,101.9,104.9,100.6,104.9,98.3z M106.9,82.6c0-1.9-0.1-2.3-0.2-3.2h-0.2c-0.1,0.8-0.2,1.3-0.2,3.2c0,1.9,0.1,2.9,0.2,3.8
				h0.2C106.8,85.5,106.9,84.5,106.9,82.6z M106.9,98.3c0-1.9-0.1-2.7-0.2-3.5h-0.2c-0.1,0.8-0.2,1.7-0.2,3.5c0,1.7,0.1,2.3,0.2,3.1
				h0.2C106.8,100.6,106.9,100,106.9,98.3z M113.4,82.9v-0.2c-1-0.6-1.9-1.7-1.9-3.2v0.4c0-0.9-0.5-1.4-1.4-1.4
				c-1,0-1.5,0.8-1.5,1.7v8.6h0.5c1.4,0,2.3-0.5,2.3-2.6l0,0C111.6,84.6,112.4,83.5,113.4,82.9z M111.6,75.6l0.7,0.7l0.6-0.7
				l-0.7-0.7L111.6,75.6z M113.2,90.6l-0.7-0.7l-0.7,0.7l0.7,0.7L113.2,90.6z M114,99c0-1.6-0.1-2.2-0.2-2.9h-0.2
				c-0.1,0.7-0.2,1.3-0.2,2.9s0.1,2.2,0.2,2.8h0.2C114,101.2,114,100.6,114,99z M114.2,80c0-0.4-0.1-0.4-0.1-0.6h-0.3
				c-0.1,0.2-0.1,0.2-0.1,0.6s0.1,0.4,0.1,0.6h0.3C114.1,80.4,114.2,80.4,114.2,80z M114.2,86.2c0-0.4-0.1-0.4-0.1-0.7h-0.3
				c-0.1,0.3-0.1,0.3-0.1,0.7c0,0.4,0.1,0.5,0.1,0.6h0.3C114.1,86.7,114.2,86.6,114.2,86.2z M115.9,99.3c0-2.3-0.1-3.1-0.2-4.6h-0.2
				c-0.1,1.5-0.2,2.3-0.2,4.6c0,2.5,0.1,4.1,0.2,5.2h0.2C115.9,103.4,115.9,101.8,115.9,99.3z M115.5,82.8c0,2.7,0.1,4.9,0.2,5.5
				h0.2c0.1-0.6,0.2-2.8,0.2-5.5s-0.1-3.9-0.2-5h-0.2C115.5,79,115.5,80.2,115.5,82.8z M117.8,99.5c0-1.6-0.1-2.3-0.2-3h-0.2
				c-0.1,0.7-0.2,1.4-0.2,3c0,2.1,0.1,3.2,0.2,4.1h0.2C117.8,102.7,117.8,101.6,117.8,99.5z M117.3,80c0,0.4,0.1,0.4,0.1,0.6h0.3
				c0.1-0.2,0.1-0.2,0.1-0.6s-0.1-0.4-0.1-0.6h-0.3C117.4,79.6,117.3,79.6,117.3,80z M117.3,86.2c0,0.4,0.1,0.5,0.1,0.6h0.3
				c0.1-0.2,0.1-0.3,0.1-0.6c0-0.4-0.1-0.4-0.1-0.7h-0.3C117.4,85.8,117.3,85.9,117.3,86.2z"/>
			<path class="st2" d="M118.1,109.6c-4,0-6.8-3.1-6.8-7.7v-6.6c0-1.3-0.6-2.1-1.6-2.1H109v9.9c0,1.4,0.5,2,1.7,2h0.2v3h-1.7
				c-2.6,0-4.1-1-4.5-2.9h-0.1c-0.4,1.9-1.9,2.9-4.5,2.9h-1.7v-3h0.2c1.2,0,1.7-0.6,1.7-2v-7.8c0-2.7,0.9-3.8,2.4-4.6
				c-1.5-0.8-2.4-1.8-2.4-4.6V78c0-1.4-0.5-2-1.8-2.2h-0.2v-3h4.9c2.4,0,3.9,1.1,4.4,3.2c0.6-2.5,2.8-4.2,5.6-4.2h1.9V72
				c0.1,3.7,3,4.2,5.9,4.2h0.2v2.9H121c-0.4,0-0.9,0.1-0.9,1.1c0,1.7-0.6,1.9-1.7,2.3c-0.2,0.1-0.4,0.2-0.7,0.3
				c1.5,0.6,2.3,1.4,2.3,3.2c0,0.7,0.1,0.7,0.9,0.7h0.2v2.9H121c-2.7,0-3.9,0.7-4.9,1.8c1,1.3,2.1,2,4.6,2h0.2v2.9h-0.2
				c-0.4,0-0.9,0.1-0.9,1.1v6.2c0,0.6,0.1,1,0.3,1.1c0.2,0.2,0.6,0.2,1.3,0l0.3-0.1v3.4l-0.1,0.1C121.3,108.5,120,109.6,118.1,109.6
				z M108.5,92.8h1.3c1.3,0,2.1,1,2.1,2.6v6.6c0,4.4,2.5,7.2,6.3,7.2c1.6,0,2.8-0.9,3.3-1.3v-2.4c-0.7,0.1-1.1,0.1-1.5-0.2
				c-0.3-0.3-0.5-0.8-0.5-1.5v-6.2c0-1.2,0.6-1.5,1.1-1.6v-2c-2.6-0.1-3.8-0.9-4.9-2.4l-0.1-0.2l0.1-0.2c1.3-1.5,2.6-2.1,5.1-2.1v-2
				c-0.6,0-1.1-0.1-1.1-1.2c0-1.5-0.5-2.2-2.3-2.9l-0.2-0.1v-0.6l0.1-0.1c0.4-0.2,0.7-0.3,1-0.4c1-0.4,1.3-0.5,1.3-1.8
				c0-0.9,0.4-1.5,1.1-1.5v-2c-4-0.1-6-1.5-6.1-4.4h-1.4c-2.2,0-4.7,1.3-5.2,4.2v0.2h-0.8v-0.2c-0.4-2.1-1.7-3.1-3.9-3.1h-4.4v2
				c1.3,0.2,2,1.1,2,2.7V86c0,2.6,0.8,3.5,2.3,4.3l0.1,0.1V91l-0.1,0.1c-1.5,0.7-2.3,1.6-2.3,4.3v7.8c0,1.6-0.7,2.4-2,2.5v2h1.2
				c2.4,0,3.7-0.9,4.1-2.7v-0.2h0.9v0.2c0.3,1.8,1.6,2.7,4.1,2.7h1.2v-2c-1.3-0.1-2-0.9-2-2.5V92.8H108.5z M116,104.8h-0.7v-0.2
				c-0.1-1.1-0.2-2.8-0.2-5.2c0-2.3,0.1-3.1,0.2-4.6v-0.2h0.7v0.2c0.1,1.5,0.2,2.4,0.2,4.6c0,2.5-0.1,4.1-0.2,5.2V104.8z
				 M115.6,96.6c0,0.7,0,1.5,0,2.7c0,1.3,0,2.4,0,3.2c0-0.9,0-2,0-3.2C115.7,98.1,115.7,97.3,115.6,96.6z M117.9,103.9h-0.7v-0.2
				c-0.1-1-0.2-2.2-0.2-4.2c0-1.6,0.1-2.3,0.2-3v-0.2h0.7v0.2c0.1,0.7,0.2,1.4,0.2,3c0,2-0.1,3.2-0.2,4.2V103.9z M117.5,97.6
				c0,0.5,0,1,0,1.9c0,1.1,0,1.9,0,2.6c0-0.7,0-1.5,0-2.6C117.6,98.6,117.6,98.1,117.5,97.6z M105,103.2h-0.7V103
				c-0.1-1.1-0.2-2.5-0.2-4.6c0-2.5,0.1-3.5,0.2-5v-0.2h0.7v0.2c0.1,1.5,0.2,2.5,0.2,5c0,2.2-0.1,3.6-0.2,4.6V103.2z M104.6,95.4
				c0,0.8,0,1.6,0,2.9c0,1.2,0,2.1,0,2.9c0-0.8,0-1.7,0-2.9C104.7,97,104.7,96.2,104.6,95.4z M114.1,102.1h-0.7v-0.2
				c-0.1-0.7-0.2-1.3-0.2-2.9s0.1-2.3,0.2-2.9v-0.2h0.7v0.2c0.1,0.7,0.2,1.3,0.2,2.9s-0.1,2.2-0.2,2.9V102.1z M113.7,97.2
				c0,0.4,0,1,0,1.8s0,1.4,0,1.8c0-0.4,0-1,0-1.8C113.8,98.2,113.8,97.6,113.7,97.2z M103.1,101.7h-0.7v-0.2
				c-0.1-0.8-0.2-1.5-0.2-3.2c0-1.9,0.1-2.8,0.2-3.6v-0.2h0.7v0.2c0.1,0.9,0.2,1.9,0.2,3.6s-0.1,2.5-0.2,3.2V101.7z M102.7,96.1
				c0,0.5,0,1.2,0,2.2c0,0.9,0,1.5,0,2c0-0.5,0-1.1,0-2C102.8,97.3,102.8,96.6,102.7,96.1z M106.9,101.7h-0.7v-0.2
				c-0.1-0.8-0.2-1.5-0.2-3.2c0-1.9,0.1-2.8,0.2-3.6v-0.2h0.7v0.2c0.1,0.8,0.2,1.6,0.2,3.6c0,1.7-0.1,2.4-0.2,3.2V101.7z
				 M106.6,96.1c0,0.5,0,1.2,0,2.2c0,0.9,0,1.5,0,1.9c0-0.5,0-1.1,0-1.9C106.6,97.3,106.6,96.6,106.6,96.1z M112.5,91.6l-1-1l1-1
				l1,1L112.5,91.6z M112.2,90.6l0.3,0.3l0.3-0.3l-0.3-0.3L112.2,90.6z M109.2,89h-0.8v-8.8c0-1.1,0.7-1.9,1.7-1.9
				c0.9,0,1.4,0.5,1.6,1.2l0,0c0,1.2,0.6,2.4,1.7,3l0.1,0.1V83l-0.1,0.1c-1.1,0.6-1.7,1.8-1.7,3l0,0C111.8,88.6,110.4,89,109.2,89z
				 M109,88.5h0.3c1.3,0,2.1-0.4,2.1-2.4l0,0c0-1.3,0.7-2.6,1.8-3.3c-1-0.7-1.7-1.7-1.8-2.9l0,0c0-0.7-0.4-1.1-1.1-1.1
				c-0.9,0-1.2,0.7-1.2,1.4v8.3H109z M116.1,88.6h-0.6v-0.2c-0.1-0.6-0.2-2.7-0.2-5.6c0-2.8,0.1-4,0.2-5v-0.2h0.7v0.2
				c0.1,1.1,0.2,2.3,0.2,5c0,2.9-0.1,5-0.2,5.6L116.1,88.6z M115.8,79.7c0,0.8,0,1.8,0,3.2c0,1.4,0,2.7,0,3.6c0-1,0-2.2,0-3.6
				C115.8,81.4,115.8,80.4,115.8,79.7z M105,88.1h-0.7v-0.2c-0.1-0.6-0.2-2.9-0.2-6c0-2.6,0.1-4.1,0.2-5.4v-0.2h0.7v0.2
				c0.1,1.3,0.2,2.8,0.2,5.4c0,2.4,0,5.2-0.2,6V88.1z M104.6,78.5c0,0.9,0,2,0,3.4c0,1.5,0,2.9,0,3.9c0-1,0-2.4,0-3.9
				C104.7,80.5,104.7,79.4,104.6,78.5z M117.9,87.1h-0.7l-0.1-0.2c-0.1-0.1-0.1-0.3-0.1-0.6c0-0.3,0-0.4,0.1-0.5
				c0-0.1,0-0.1,0.1-0.2v-0.2h0.7v0.2c0,0.1,0,0.2,0.1,0.2c0,0.1,0.1,0.3,0.1,0.5c0,0.3-0.1,0.5-0.1,0.6L117.9,87.1z M117.6,86
				c0,0.1,0,0.1,0,0.3c0,0.1,0,0.2,0,0.3c0-0.1,0-0.1,0-0.3S117.6,86,117.6,86z M114.3,87.1h-0.7l-0.1-0.2c-0.1-0.1-0.1-0.3-0.1-0.6
				c0-0.3,0-0.4,0.1-0.5c0-0.1,0-0.1,0.1-0.2v-0.2h0.7v0.2c0,0.1,0,0.2,0.1,0.2c0,0.1,0.1,0.3,0.1,0.5c0,0.3-0.1,0.5-0.1,0.6
				L114.3,87.1z M113.9,86c0,0.1,0,0.1,0,0.3c0,0.1,0,0.2,0,0.3c0-0.1,0-0.2,0-0.3C114,86.1,113.9,86,113.9,86z M106.9,86.6h-0.7
				v-0.2c-0.1-0.8-0.2-1.8-0.2-3.8c0-1.8,0.1-2.3,0.2-3.2v-0.2h0.7v0.2c0.1,0.9,0.2,1.4,0.2,3.2c0,2-0.1,3-0.2,3.8V86.6z
				 M106.6,80.6c0,0.5,0,1,0,2s0,1.8,0,2.3c0-0.6,0-1.3,0-2.3S106.6,81.1,106.6,80.6z M103.1,86.6h-0.7v-0.2
				c-0.1-1.1-0.2-2.4-0.2-4.5s0.1-3,0.2-4v-0.2h0.7v0.2c0.1,1,0.2,1.8,0.2,4c0,2.1-0.1,3.4-0.2,4.5V86.6z M102.7,79.4
				c0,0.6,0,1.4,0,2.5s0,2,0,2.8c0-0.8,0-1.7,0-2.8C102.8,80.8,102.8,80,102.7,79.4z M117.9,80.9h-0.7l-0.1-0.3
				c-0.1-0.2-0.1-0.3-0.1-0.6c0-0.3,0-0.4,0.1-0.6v-0.1v-0.2h0.7v0.2c0,0.1,0,0.1,0,0.1c0.1,0.1,0.1,0.2,0.1,0.6
				c0,0.3,0,0.4-0.1,0.6L117.9,80.9z M117.6,79.7c0,0.1,0,0.1,0,0.3c0,0.1,0,0.2,0,0.3c0-0.1,0-0.1,0-0.3
				C117.6,79.9,117.6,79.8,117.6,79.7z M114.3,80.9h-0.7l-0.1-0.3c0-0.1-0.1-0.3-0.1-0.6c0-0.3,0-0.4,0.1-0.6v-0.1v-0.2h0.7v0.2
				c0,0.1,0,0.1,0,0.1c0.1,0.1,0.1,0.2,0.1,0.6c0,0.3,0,0.4-0.1,0.6L114.3,80.9z M113.9,79.7c0,0.1,0,0.1,0,0.3c0,0.1,0,0.2,0,0.3
				c0-0.1,0-0.1,0-0.3C114,79.9,113.9,79.8,113.9,79.7z M112.3,76.6l-1.1-1l1-1l1,1L112.3,76.6z M111.9,75.6l0.3,0.3l0.3-0.3
				l-0.3-0.3L111.9,75.6z"/>
		</g>
		<g>
			<path class="st0" d="M143.9,73.1v2.4c-1.1,0.1-1.8,1.2-2.4,3.5l-4,14.1c-0.9,3.6-1.5,3.5-3.3,4.1v0.2c1.7,0.7,2.6,1.7,2.6,4.2
				v0.7c0,1.9,0.6,3,3,3v2.4h-3.1c-2.7,0-4-1.1-4.3-2.9h-0.3c-0.3,1.8-1.6,2.9-4.3,2.9h-3.3v-2.4c2.4,0,3-1.1,3-3V102
				c0-2.7,0.9-3.7,2.6-4.5v-0.2c-1.8-0.7-2.4-1.5-3-3.6l-1.9-5c-0.7-2.6,0.4-3.7,2-4.4v-0.2c-2.3-0.7-3.1-1.6-3.8-4.2l-0.7-2.2
				c-0.5-1.7-0.7-2.3-2-2.3V73h2.4c2.7,0,4.1,1.1,4.5,2.9h0.3c0.2-1.8,1.4-2.9,4.1-2.9h1.7v2.4c-1.3,0-1.6,0.7-1.4,2.6l0.2,1.7
				c0.2,2.7-0.3,3.7-1.5,4.5v0.2c2,0.4,2.7,1.7,2.3,4.2l-0.8,3.1l0.7,0.1l1.3-5c0.3-1.5,0.7-2.2,2-2.6l0.1-0.2
				c-1.1-0.5-1.4-1.9-1.1-3.5l0.5-1.7c0.4-2.3-0.1-3.3-1.3-3.3v-2.4h1.8c1.7,0,2.2,1,2.4,2.5h0.3c0.4-1.6,1.2-2.5,3-2.5L143.9,73.1
				L143.9,73.1z M126.9,81.3c0.1-0.4-0.3-2.1-0.4-2.4l-0.3,0.1c0,0.5,0.3,2,0.5,2.4L126.9,81.3z M129.6,92.7c-0.3-1.9-1-3.6-1.6-5.1
				l-0.4,0.1c0.2,1.6,1,3.3,1.6,5.1L129.6,92.7z M130.6,89.3c-0.1-2.1-1.7-9.4-2.3-11.8l-0.2,0.1c0.2,2.7,1.7,9.7,2.3,11.8
				L130.6,89.3z M130.6,101.7c0.1-0.2,0.1-0.3,0.1-0.6c0-0.4-0.1-0.4-0.1-0.7h-0.3c-0.1,0.3-0.1,0.3-0.1,0.7c0,0.4,0.1,0.5,0.1,0.6
				H130.6z M130.8,80.8c0.1-0.4-0.3-2-0.3-2.3l-0.3,0.1c0,0.3,0.2,2,0.3,2.3L130.8,80.8z M132.9,93.7l-0.7-0.7l-0.6,0.7l0.7,0.7
				L132.9,93.7z M132.4,103.2c0.1-0.4,0.2-1.9,0.2-3.6s-0.1-2.8-0.2-3.5h-0.2c-0.1,0.7-0.2,1.8-0.2,3.5s0.1,3.2,0.2,3.6H132.4z
				 M134.2,101.7c0.1-0.2,0.1-0.3,0.1-0.6c0-0.4-0.1-0.4-0.1-0.7h-0.3c-0.1,0.3-0.1,0.3-0.1,0.7c0,0.4,0.1,0.5,0.1,0.6H134.2z
				 M135.7,91.8c0.3-0.7,1.7-4.9,1.7-5.7h-0.3c-0.4,0.9-1.7,5-1.7,5.7H135.7z M138.1,82.6c0.2-0.4,0.6-1.5,0.6-2l-0.3-0.1
				c-0.2,0.7-0.5,1.4-0.6,2L138.1,82.6z M139.7,78.3l-0.7-0.7l-0.6,0.7l0.7,0.7L139.7,78.3z"/>
			<path class="st2" d="M140.1,108.2h-3.4c-2.5,0-4-0.9-4.4-2.7c-0.5,1.8-2,2.7-4.4,2.7h-3.5v-2.9h0.2c2.3,0,2.8-1,2.8-2.7V102
				c0-2.7,0.9-3.8,2.5-4.6c-1.6-0.7-2.3-1.6-2.9-3.7l-1.8-4.9c-0.6-2.2,0-3.6,1.7-4.5c-2.1-0.7-2.9-1.7-3.5-4.2l-0.7-2.1
				c-0.5-1.7-0.7-2.2-1.7-2.2h-0.2v-2.9h2.6c2.5,0,4,0.9,4.6,2.7c0.4-1.8,1.8-2.7,4.3-2.7h1.9v2.9H134c-0.4,0-0.7,0.1-0.9,0.3
				c-0.3,0.3-0.3,0.9-0.2,2l0.2,1.7c0.2,2.4-0.2,3.6-1.3,4.5c1.8,0.5,2.5,1.9,2.1,4.4l-0.7,2.9h0.2l1.2-4.8c0.3-1.4,0.7-2.2,1.9-2.7
				c-0.9-0.6-1.2-1.9-0.9-3.6l0.5-1.8c0.2-1.3,0.2-2.2-0.2-2.6c-0.2-0.2-0.5-0.3-0.8-0.3h-0.2v-2.9h2c1.8,0,2.4,1,2.6,2.2
				c0.5-1.5,1.5-2.2,3.1-2.2h1.9v2.9h-0.2c-1,0.1-1.6,1-2.2,3.3l-4,14.1c-0.8,3.2-1.4,3.6-2.9,4.1c-0.1,0-0.1,0-0.2,0.1
				c1.5,0.7,2.4,1.8,2.4,4.3v0.7c0,1.7,0.5,2.7,2.8,2.7h0.2v3.1C140.4,108.2,140.1,108.2,140.1,108.2z M131.9,104.7h0.7v0.2
				c0.3,1.8,1.6,2.7,4.1,2.7h2.9v-2c-2.7-0.1-3-1.6-3-3.2v-0.7c0-2.5-0.9-3.4-2.4-4l-0.2-0.1V97l0.2-0.1c0.2-0.1,0.3-0.1,0.5-0.2
				c1.3-0.5,1.8-0.6,2.6-3.8l4-14.1c0.5-2,1.1-3.4,2.4-3.7v-2h-1.4c-1.5,0-2.4,0.7-2.7,2.3v0.2h-0.7v-0.2c-0.2-1.4-0.6-2.3-2.1-2.3
				H135v2c0.4,0,0.7,0.2,1,0.5c0.5,0.6,0.6,1.6,0.3,3.1l-0.5,1.8c-0.2,1.2-0.1,2.7,0.9,3.2l0.2,0.1l-0.2,0.5h-0.1
				c-1.2,0.4-1.6,1-1.9,2.4l-1.3,5.3l-1.1-0.2l0.8-3.4c0.4-2.3-0.2-3.5-2.1-3.9h-0.2V84h0.2c1.1-0.7,1.6-1.5,1.4-4.3l-0.2-1.7
				c-0.1-1.3,0-2,0.4-2.4c0.2-0.3,0.6-0.4,1-0.4v-2h-1.4c-2.4,0-3.7,0.9-3.9,2.7v0.2h-0.7v-0.2c-0.4-1.8-1.8-2.7-4.2-2.7h-2.1v2
				c1.3,0.1,1.5,1,2,2.5l0.7,2.2c0.6,2.5,1.4,3.4,3.6,4l0.2,0.1v0.5l-0.2,0.1c-1.2,0.5-2.5,1.4-1.8,4.1l1.8,4.9
				c0.5,2.1,1.1,2.8,2.8,3.4l0.2,0.1v0.6l-0.1,0.1c-1.6,0.7-2.4,1.6-2.4,4.3v0.5c0,1.6-0.4,3.1-3,3.2v2h3c2.4,0,3.7-0.9,4.1-2.7
				L131.9,104.7z M132.5,103.4h-0.6l-0.1-0.2c-0.2-0.5-0.2-2.9-0.2-3.6c0-1.7,0.1-2.8,0.2-3.5v-0.2h0.7v0.2c0.1,0.7,0.2,1.9,0.2,3.5
				c0,0.7,0,3.1-0.2,3.6L132.5,103.4z M132.2,97.5c0,0.6,0,1.3,0,2.2c0,1,0,1.8,0,2.4c0-0.6,0-1.4,0-2.4
				C132.3,98.8,132.3,98.1,132.2,97.5z M134.4,102h-0.7l-0.1-0.2c-0.1-0.1-0.1-0.3-0.1-0.6c0-0.3,0-0.4,0.1-0.5c0-0.1,0-0.1,0.1-0.2
				v-0.2h0.7v0.2c0,0.1,0,0.2,0.1,0.2c0,0.1,0.1,0.3,0.1,0.5c0,0.3-0.1,0.5-0.1,0.6L134.4,102z M134.1,100.8c0,0.1,0,0.1,0,0.3
				c0,0.1,0,0.2,0,0.3c0-0.1,0-0.1,0-0.3C134.1,101,134.1,100.9,134.1,100.8z M130.8,102h-0.7l-0.1-0.2c-0.1-0.1-0.1-0.3-0.1-0.6
				c0-0.3,0-0.4,0.1-0.5c0-0.1,0-0.1,0.1-0.2v-0.2h0.7v0.2c0,0.1,0,0.2,0.1,0.2c0,0.1,0.1,0.3,0.1,0.5c0,0.3-0.1,0.5-0.1,0.6
				L130.8,102z M130.4,100.8c0,0.1,0,0.1,0,0.3c0,0.1,0,0.2,0,0.3c0-0.1,0-0.2,0-0.3S130.4,100.9,130.4,100.8z M132.3,94.7l-1-1
				l0.9-1l1,1L132.3,94.7z M132,93.7l0.3,0.3l0.3-0.3l-0.3-0.3L132,93.7z M129.1,93l-0.1-0.2c-0.1-0.4-0.3-0.7-0.4-1.1
				c-0.5-1.4-1.1-2.8-1.2-4.1v-0.2l0.8-0.1l0.1,0.2c0.6,1.5,1.3,3.3,1.6,5.2v0.2L129.1,93z M128,88.2c0.2,1.1,0.6,2.2,1.1,3.3
				C128.8,90.3,128.4,89.2,128,88.2z M135.8,92.1l-0.6-0.2v-0.2c0-0.8,1.4-5,1.7-5.8l0.1-0.2h0.7V86c-0.1,0.9-1.5,5.2-1.8,5.8
				L135.8,92.1z M130.2,89.7l-0.1-0.2c-0.6-2.1-2.1-9.1-2.3-11.9v-0.2l0.7-0.2l0.1,0.2c0,0.1,2.3,9.3,2.3,11.9v0.2L130.2,89.7z
				 M128.6,80.2c0.4,2.3,1,5.2,1.5,7.2C129.8,85.4,129.2,82.5,128.6,80.2z M138.2,82.9l-0.7-0.3v-0.2c0-0.4,0.2-0.8,0.4-1.3
				c0.1-0.3,0.2-0.5,0.2-0.7l0.1-0.3l0.7,0.3v0.2c0,0.6-0.4,1.5-0.6,2.1L138.2,82.9z M126.6,81.6L126.6,81.6
				c-0.4-0.5-0.6-2.1-0.6-2.6v-0.2l0.7-0.1l0.1,0.2c0.1,0.2,0.6,2.1,0.4,2.5v0.1L126.6,81.6z M130.3,81.1l-0.1-0.2
				c-0.1-0.4-0.4-2.1-0.4-2.4v-0.2l0.7-0.1l0.1,0.3c0.3,1.4,0.4,2.1,0.3,2.3V81L130.3,81.1z M139.1,79.3l-1-1l0.9-1l1,1L139.1,79.3z
				 M138.7,78.3l0.3,0.3l0.3-0.3L139,78L138.7,78.3z"/>
		</g>
		<g>
			<path class="st0" d="M54.2,143.5v-2.4c0.8,0,1.1-0.5,1.1-1.4v-5.6c0-2.7,0.8-3.7,2.4-4.5v-0.2c-1.6-0.8-2.4-1.8-2.4-4.5v-6.8
				c0-0.9-0.4-1.4-1.1-1.4v-2.4c4.5,0,5.9-1.6,5.9-4.1h1.3c1.6,0,2.8,1,3.1,2.6H65c0.3-1.6,1.6-2.6,3.1-2.6h1.3
				c0.1,2.5,1.4,4.1,5.9,4.1v2.4c-0.8,0-1.1,0.5-1.1,1.4l-0.1,5.5c0,1.1,0.4,1.6,1.1,1.6v2.4h-4.7c-3.1-0.1-4.4-1-4.4-3.9v-5
				c0-1.1-0.5-1.9-1.4-1.9s-1.4,0.8-1.4,1.9v6.5c0,2.6-0.8,3.5-2.3,4.2v0.2c1.6,0.7,2.3,1.7,2.3,4.2v5c0,1.3,0.5,2.1,1.4,2.1
				c1,0,1.4-0.8,1.4-2.1v-4.2c0-2.9,1.3-3.9,4.4-3.9h4.7v2.4c-0.8,0-1.1,0.5-1.1,1.6l0.1,4.9c0,0.9,0.4,1.4,1.1,1.4v2.4
				c-4.5,0-5.9,1.6-5.9,4.1h-1.3c-1.6,0-2.8-1-3.1-2.6h-0.5c-0.3,1.6-1.6,2.6-3.1,2.6h-1.3C60.1,145.1,58.7,143.5,54.2,143.5z
				 M57.6,125.8c0.1-0.9,0.2-1.9,0.2-3.9s-0.1-3.2-0.2-4.1h-0.2c-0.1,0.9-0.2,2.2-0.2,4.1c0,2,0.1,3,0.2,3.9H57.6z M57.6,140.3
				c0.1-0.8,0.2-1.8,0.2-3.5s-0.1-2.5-0.2-3.2h-0.2c-0.1,0.8-0.2,1.6-0.2,3.2c0,1.7,0.1,2.7,0.2,3.5H57.6z M59.5,127.2
				c0.1-1.1,0.2-2.8,0.2-5.3c0-2.6-0.1-4.3-0.2-5.6h-0.2c-0.1,1.3-0.2,3-0.2,5.6s0.1,4.2,0.2,5.3H59.5z M59.5,141.7
				c0.1-1,0.2-2.6,0.2-4.9c0-2.3-0.1-3.6-0.2-4.7h-0.2c-0.1,1.1-0.2,2.4-0.2,4.7s0.1,3.9,0.2,4.9H59.5z M61.4,125.8
				c0.1-0.9,0.2-1.9,0.2-3.9s-0.1-3.2-0.2-4.1h-0.2c-0.1,0.9-0.2,2.2-0.2,4.1c0,2,0.1,3,0.2,3.9H61.4z M61.4,140.3
				c0.1-0.8,0.2-1.8,0.2-3.5s-0.1-2.5-0.2-3.2h-0.2c-0.1,0.8-0.2,1.6-0.2,3.2c0,1.7,0.1,2.7,0.2,3.5H61.4z M63.2,114.8l-0.7-0.7
				l-0.6,0.7l0.7,0.7L63.2,114.8z M63.2,143l-0.7-0.7L62,143l0.7,0.7L63.2,143z M68,114.8l-0.7-0.7l-0.6,0.7l0.7,0.7L68,114.8z
				 M68,143l-0.7-0.7l-0.6,0.7l0.7,0.7L68,143z M68.3,123.8c0.1-0.7,0.2-1.4,0.2-3.1c0-1.5-0.1-2.3-0.2-3h-0.2
				c-0.1,0.7-0.2,1.5-0.2,3c0,1.6,0.1,2.3,0.2,3.1H68.3z M68.3,140.3c0.1-0.7,0.2-1.5,0.2-2.9c0-1.6-0.1-2.2-0.2-2.9h-0.2
				c-0.1,0.7-0.2,1.3-0.2,2.9c0,1.4,0.1,2.3,0.2,2.9H68.3z M70.2,125.3c0.1-1,0.2-2.3,0.2-4.5c0-2.1-0.1-3.4-0.2-4.4H70
				c-0.1,1.1-0.2,2.3-0.2,4.4c0,2.2,0.1,3.5,0.2,4.5H70.2z M70.2,141.7c0.1-0.9,0.2-2.3,0.2-4.4c0-2.1-0.1-3.4-0.2-4.3H70
				c-0.1,1-0.2,2.2-0.2,4.3c0,2,0.1,3.5,0.2,4.4H70.2z M72.1,125.3c0.1-0.8,0.2-1.8,0.2-3.7s-0.1-3-0.2-3.8h-0.2
				c-0.1,0.8-0.2,2-0.2,3.8s0.1,2.8,0.2,3.7H72.1z M72.1,140.3c0.1-0.8,0.2-1.9,0.2-3.7s-0.1-2.6-0.2-3.5h-0.2
				c-0.1,0.8-0.2,1.7-0.2,3.5s0.1,2.9,0.2,3.7H72.1z"/>
			<path class="st2" d="M69.6,147.9h-1.5c-1.6,0-2.9-1-3.3-2.6h-0.1c-0.4,1.5-1.7,2.6-3.3,2.6h-1.5v-0.2c0-1.9-0.8-3.9-5.7-3.9H54
				v-2.9h0.2c0.4,0,0.9-0.1,0.9-1.1v-5.6c0-2.7,0.9-3.8,2.4-4.6c-1.5-0.8-2.4-1.8-2.4-4.6v-6.8c0-1-0.5-1.1-0.9-1.1H54V114h0.2
				c4.9,0,5.6-2,5.7-3.9v-0.2h1.5c1.6,0,2.9,1,3.3,2.6h0.1c0.4-1.5,1.7-2.6,3.3-2.6h1.5v0.2c0,1.9,0.8,3.9,5.7,3.9h0.2v2.9h-0.2
				c-0.4,0-0.9,0.1-0.9,1.1l-0.1,5.5c0,1.3,0.5,1.4,0.9,1.4h0.2v2.9h-4.9c-3.4-0.1-4.6-1.2-4.6-4.2v-5c0-1-0.5-1.6-1.2-1.6
				s-1.2,0.6-1.2,1.6v6.5c0,2.6-0.8,3.6-2.2,4.4c1.4,0.7,2.2,1.7,2.2,4.4v5c0,0.8,0.2,1.8,1.2,1.8s1.2-1,1.2-1.8v-4.2
				c0-3,1.2-4.1,4.6-4.2h4.9v2.9h-0.2c-0.4,0-0.9,0.1-0.9,1.4l0.1,4.9c0,1,0.5,1.1,0.9,1.1h0.2v2.9h-0.2c-4.9,0-5.6,2-5.7,3.9
				L69.6,147.9z M64.3,144.8h0.9v0.2c0.3,1.4,1.4,2.4,2.9,2.4h1c0.2-2.8,2.1-4.1,5.9-4.1v-2c-0.6-0.1-1.1-0.4-1.1-1.6l-0.1-4.9
				c0-0.4,0-1.7,1.1-1.8v-2h-4.4c-3.1,0.1-4.1,1-4.1,3.7v4.2c0,1.5-0.6,2.3-1.7,2.3s-1.7-0.9-1.7-2.3v-5c0-2.5-0.8-3.4-2.2-4
				l-0.1-0.1v-0.6l0.1-0.1c1.4-0.7,2.2-1.5,2.2-4v-6.5c0-1.3,0.7-2.1,1.7-2.1s1.7,0.8,1.7,2.1v5c0,2.7,1,3.6,4.1,3.7h4.4v-1.9
				c-1.1-0.2-1.1-1.4-1.1-1.8l0.1-5.5c0-1.2,0.6-1.5,1.1-1.6v-2c-3.9-0.1-5.7-1.4-5.9-4.1h-1c-1.4,0-2.6,1-2.9,2.4v0.2h-0.9v-0.2
				c-0.3-1.4-1.4-2.4-2.9-2.4h-1c-0.2,2.8-2.1,4.1-5.9,4.1v2c0.6,0.1,1.1,0.4,1.1,1.6v6.8c0,2.6,0.8,3.5,2.3,4.3l0.1,0.1v0.6
				l-0.1,0.1c-1.5,0.7-2.3,1.6-2.3,4.3v5.6c0,1.2-0.6,1.5-1.1,1.6v2c3.8,0.1,5.7,1.4,5.9,4.1h1c1.4,0,2.6-1,2.9-2.4V144.8z
				 M62.6,144l-1-1l0.9-1l1,1L62.6,144z M62.3,143l0.3,0.3l0.3-0.3l-0.3-0.3L62.3,143z M67.4,144l-1-1l0.9-1l1.1,1L67.4,144z
				 M67,143l0.3,0.3l0.3-0.3l-0.3-0.3L67,143z M70.4,142h-0.7v-0.2c-0.1-0.9-0.2-2.4-0.2-4.4c0-2.1,0.1-3.3,0.2-4.3v-0.2h0.7v0.2
				c0.1,1,0.2,2.3,0.2,4.3c0,2.1-0.1,3.5-0.2,4.4V142z M70.1,134.7c0,0.7,0,1.6,0,2.7c0,1,0,1.9,0,2.7c0-0.7,0-1.6,0-2.7
				C70.2,136.2,70.1,135.4,70.1,134.7z M59.7,142H59v-0.2c-0.1-1-0.2-2.6-0.2-4.9c0-2.2,0.1-3.6,0.2-4.7V132h0.7v0.2
				c0.1,1.1,0.2,2.5,0.2,4.7c0,2.3-0.1,3.9-0.2,4.9V142z M59.4,133.9c0,0.8,0,1.7,0,2.9s0,2.2,0,3c0-0.8,0-1.8,0-3
				C59.4,135.7,59.4,134.7,59.4,133.9z M72.4,140.5h-0.7v-0.2c-0.1-0.9-0.2-2-0.2-3.8c0-1.9,0.1-2.7,0.2-3.5v-0.2h0.7v0.2
				c0.1,0.8,0.2,1.6,0.2,3.5c0,1.7-0.1,2.9-0.2,3.8V140.5z M72,134.4c0,0.5,0,1.2,0,2.2c0,0.9,0,1.7,0,2.3c0-0.6,0-1.4,0-2.3
				C72.1,135.6,72,134.9,72,134.4z M68.5,140.5h-0.7v-0.2c-0.1-0.7-0.2-1.6-0.2-3c0-1.6,0.1-2.2,0.2-2.9v-0.2h0.7v0.2
				c0.1,0.7,0.2,1.4,0.2,2.9c0,1.4-0.1,2.3-0.2,3V140.5z M68.2,135.5c0,0.4,0,1,0,1.8c0,0.7,0,1.3,0,1.8c0-0.5,0-1.1,0-1.8
				C68.2,136.5,68.2,136,68.2,135.5z M61.6,140.5h-0.7v-0.2c-0.1-0.8-0.2-1.9-0.2-3.5c0-1.8,0.1-2.5,0.2-3.3v-0.2h0.7v0.2
				c0.1,0.7,0.2,1.5,0.2,3.3c0,1.6-0.1,2.7-0.2,3.5V140.5z M61.3,134.8c0,0.5,0,1.1,0,2s0,1.5,0,2.1c0-0.6,0-1.3,0-2.1
				C61.3,135.9,61.3,135.3,61.3,134.8z M57.8,140.5h-0.7v-0.2c-0.1-0.8-0.2-1.9-0.2-3.5c0-1.8,0.1-2.5,0.2-3.3v-0.2h0.7v0.2
				c0.1,0.7,0.2,1.5,0.2,3.3c0,1.6-0.1,2.7-0.2,3.5V140.5z M57.4,134.8c0,0.5,0,1.1,0,2s0,1.5,0,2.1c0-0.6,0-1.3,0-2.1
				C57.5,135.9,57.5,135.3,57.4,134.8z M59.7,127.5H59v-0.2c-0.1-1.2-0.2-2.8-0.2-5.4c0-2.5,0.1-4.2,0.2-5.6v-0.2h0.7v0.2
				c0.1,1.4,0.2,3.1,0.2,5.6s-0.1,4.2-0.2,5.4V127.5z M59.4,118.5c0,0.9,0,2,0,3.4c0,1.3,0,2.4,0,3.3c0-0.9,0-2,0-3.3
				S59.4,119.5,59.4,118.5z M61.6,126h-0.7v-0.2c-0.1-1-0.2-2.1-0.2-3.9c0-1.9,0.1-3.2,0.2-4.2v-0.2h0.7v0.2
				c0.1,0.9,0.2,2.3,0.2,4.2c0,1.9-0.1,3-0.2,3.9V126z M61.3,119.4c0,0.7,0,1.5,0,2.5s0,1.8,0,2.4c0-0.7,0-1.4,0-2.4
				S61.3,120.1,61.3,119.4z M57.8,126h-0.7v-0.2c-0.1-1-0.2-2.1-0.2-3.9c0-1.9,0.1-3.2,0.2-4.2v-0.2h0.7v0.2
				c0.1,0.9,0.2,2.3,0.2,4.2c0,1.9-0.1,3-0.2,3.9V126z M57.4,119.4c0,0.7,0,1.5,0,2.5s0,1.8,0,2.4c0-0.7,0-1.4,0-2.4
				C57.5,120.9,57.5,120.1,57.4,119.4z M72.4,125.5h-0.7v-0.2c-0.1-0.9-0.2-1.9-0.2-3.7c0-1.8,0.1-3,0.2-3.9v-0.2h0.7v0.2
				c0.1,0.9,0.2,2.1,0.2,3.9c0,1.7-0.1,2.8-0.2,3.7V125.5z M72,119.2c0,0.6,0,1.4,0,2.4c0,0.9,0,1.7,0,2.3c0-0.6,0-1.3,0-2.3
				C72.1,120.7,72,119.9,72,119.2z M70.4,125.5h-0.7v-0.2c-0.1-1-0.2-2.4-0.2-4.5c0-2,0.1-3.3,0.2-4.5v-0.2h0.7v0.2
				c0.1,1.1,0.2,2.5,0.2,4.5c0,2.1-0.1,3.5-0.2,4.5V125.5z M70.1,118.1c0,0.8,0,1.6,0,2.7s0,2,0,2.8c0-0.8,0-1.7,0-2.8
				C70.2,119.7,70.1,118.8,70.1,118.1z M68.5,124.1h-0.7v-0.2c-0.1-0.7-0.2-1.4-0.2-3.1c0-1.4,0.1-2.3,0.2-3v-0.2h0.7v0.2
				c0.1,0.7,0.2,1.6,0.2,3c0,1.7-0.1,2.4-0.2,3.1V124.1z M68.2,118.9c0,0.5,0,1.1,0,1.9s0,1.4,0,1.9c0-0.5,0-1.1,0-1.9
				S68.2,119.4,68.2,118.9z M62.6,115.8l-1-1l0.9-1l1,1L62.6,115.8z M62.3,114.8l0.3,0.3l0.3-0.3l-0.3-0.3L62.3,114.8z M67.4,115.8
				l-1-1l0.9-1l1.1,1L67.4,115.8z M67,114.8l0.3,0.3l0.3-0.3l-0.3-0.3L67,114.8z"/>
		</g>
		<g>
			<path class="st0" d="M98.6,114.2v2.4c-0.8,0-1.1,0.5-1.1,1.4v6.9c0,2.7-0.8,3.7-2.4,4.5v0.2c1.6,0.8,2.4,1.8,2.4,4.5v5.6
				c0,0.9,0.4,1.4,1.1,1.4v2.4c-4.5,0-5.9,1.6-5.9,4.1h-1.3c-1.6,0-2.8-1-3.1-2.6h-0.5c-0.3,1.6-1.6,2.6-3.1,2.6h-1.3
				c-0.1-2.5-1.4-4.1-5.9-4.1v-2.4c0.8,0,1.1-0.5,1.1-1.4v-5.6c0-2.7,0.8-3.7,2.4-4.5v-0.2c-1.6-0.8-2.4-1.8-2.4-4.5V118
				c0-0.9-0.4-1.4-1.1-1.4v-2.4c4.5,0,5.9-1.6,5.9-4.1h1.3c1.6,0,2.8,1,3.1,2.6h0.5c0.3-1.6,1.6-2.6,3.1-2.6h1.3
				C92.8,112.6,94.2,114.2,98.6,114.2z M80.7,117.8c-0.1,0.9-0.2,2.2-0.2,4.1c0,2,0.1,3,0.2,3.9H81c0.1-0.9,0.2-1.9,0.2-3.9
				s-0.1-3.2-0.2-4.1H80.7z M80.7,133.6c-0.1,0.8-0.2,1.6-0.2,3.2c0,1.7,0.1,2.7,0.2,3.5H81c0.1-0.8,0.2-1.8,0.2-3.5
				s-0.1-2.5-0.2-3.2H80.7z M82.6,116.3c-0.1,1.3-0.2,3-0.2,5.6s0.1,4.2,0.2,5.3h0.2c0.1-1.1,0.2-2.8,0.2-5.3c0-2.6-0.1-4.3-0.2-5.6
				H82.6z M82.6,132.1c-0.1,1.1-0.2,2.4-0.2,4.7s0.1,3.9,0.2,4.9h0.2c0.1-1,0.2-2.6,0.2-4.9c0-2.3-0.1-3.6-0.2-4.7H82.6z
				 M86.7,118.6v6.5c0,2.6-0.8,3.5-2.3,4.2v0.2c1.6,0.7,2.3,1.7,2.3,4.2v5.3c0,1.1,0.5,1.9,1.4,1.9s1.4-0.8,1.4-1.9v-5.3
				c0-2.6,0.8-3.5,2.3-4.2v-0.2c-1.6-0.7-2.3-1.7-2.3-4.2v-6.5c0-1.1-0.5-1.9-1.4-1.9S86.7,117.5,86.7,118.6z M84.6,117.8
				c-0.1,0.9-0.2,2.2-0.2,4.1c0,2,0.1,3,0.2,3.9h0.2c0.1-0.9,0.2-1.9,0.2-3.9s-0.1-3.2-0.2-4.1H84.6z M84.6,133.6
				c-0.1,0.8-0.2,1.6-0.2,3.2c0,1.7,0.1,2.7,0.2,3.5h0.2c0.1-0.8,0.2-1.8,0.2-3.5s-0.1-2.5-0.2-3.2H84.6z M86,114.1l-0.6,0.7
				l0.7,0.7l0.6-0.7L86,114.1z M86,142.3l-0.6,0.7l0.7,0.7l0.6-0.7L86,142.3z M90.7,114.1l-0.6,0.7l0.7,0.7l0.7-0.7L90.7,114.1z
				 M90.7,142.3l-0.6,0.7l0.7,0.7l0.7-0.7L90.7,142.3z M91.5,117.8c-0.1,0.9-0.2,2.2-0.2,4.1c0,2,0.1,3,0.2,3.9h0.2
				c0.1-0.9,0.2-1.9,0.2-3.9s-0.1-3.2-0.2-4.1H91.5z M91.5,133.6c-0.1,0.8-0.2,1.6-0.2,3.2c0,1.7,0.1,2.7,0.2,3.5h0.2
				c0.1-0.8,0.2-1.8,0.2-3.5s-0.1-2.5-0.2-3.2H91.5z M93.4,116.3c-0.1,1.3-0.2,3-0.2,5.6s0.1,4.2,0.2,5.3h0.2
				c0.1-1.1,0.2-2.8,0.2-5.3c0-2.6-0.1-4.3-0.2-5.6H93.4z M93.4,132.1c-0.1,1-0.2,2.4-0.2,4.7s0.1,3.9,0.2,4.9h0.2
				c0.1-1,0.2-2.6,0.2-4.9c0-2.3-0.1-3.7-0.2-4.7H93.4z M95.3,117.8c-0.1,0.9-0.2,2.2-0.2,4.1c0,2,0.1,3,0.2,3.9h0.2
				c0.1-0.9,0.2-1.9,0.2-3.9s-0.1-3.2-0.2-4.1H95.3z M95.3,133.6c-0.1,0.8-0.2,1.6-0.2,3.2c0,1.7,0.1,2.7,0.2,3.5h0.2
				c0.1-0.8,0.2-1.8,0.2-3.5s-0.1-2.5-0.2-3.2H95.3z"/>
			<path class="st2" d="M93,147.9h-1.5c-1.6,0-2.9-1-3.3-2.6h-0.1c-0.4,1.5-1.7,2.6-3.3,2.6h-1.5v-0.2c0-1.9-0.8-3.9-5.7-3.9h-0.2
				v-2.9h0.2c0.4,0,0.9-0.1,0.9-1.1v-5.6c0-2.7,0.9-3.8,2.4-4.6c-1.5-0.8-2.4-1.8-2.4-4.6v-7c0-1-0.5-1.1-0.9-1.1h-0.2V114h0.2
				c4.9,0,5.6-2,5.7-3.9v-0.2h1.5c1.6,0,2.9,1,3.3,2.6h0.1c0.4-1.5,1.7-2.6,3.3-2.6H93v0.2c0,1.9,0.8,3.9,5.7,3.9h0.2v2.9h-0.2
				c-0.4,0-0.9,0.1-0.9,1.1v6.9c0,2.7-0.9,3.8-2.4,4.6c1.5,0.8,2.4,1.8,2.4,4.6v5.6c0,1,0.5,1.1,0.9,1.1h0.2v2.9h-0.2
				c-4.9,0-5.6,2-5.7,3.9V147.9z M87.7,144.8h0.9v0.2c0.3,1.4,1.4,2.4,2.9,2.4h1c0.2-2.8,2.1-4.1,5.9-4.1v-2
				c-0.6-0.1-1.1-0.4-1.1-1.6v-5.6c0-2.6-0.8-3.5-2.3-4.3l-0.1-0.1v-0.6L95,129c1.5-0.7,2.3-1.6,2.3-4.3V118c0-1.2,0.6-1.5,1.1-1.6
				v-1.9c-3.8-0.1-5.7-1.4-5.9-4.1h-1c-1.4,0-2.6,1-2.9,2.4v0.2h-0.9v-0.2c-0.3-1.4-1.4-2.4-2.9-2.4h-1c-0.2,2.8-2.1,4.1-5.9,4.1
				v1.9c0.6,0.1,1.1,0.4,1.1,1.6v6.9c0,2.6,0.8,3.5,2.3,4.3l0.1,0.1v0.6l-0.1,0.1c-1.5,0.7-2.3,1.6-2.3,4.3v5.6
				c0,1.2-0.6,1.5-1.1,1.6v2c3.8,0.1,5.7,1.4,5.9,4.1h1c1.4,0,2.6-1,2.9-2.4V144.8z M86.1,144l-1-1l0.9-1l1,1L86.1,144z M85.7,143
				l0.3,0.3l0.3-0.3l-0.3-0.3L85.7,143z M90.8,144l-1-1l0.9-1l1.1,1L90.8,144z M90.5,143l0.3,0.3l0.3-0.3l-0.3-0.3L90.5,143z
				 M93.9,142h-0.7v-0.2c-0.1-1-0.2-2.7-0.2-4.9s0.1-3.6,0.2-4.7V132h0.7v0.2c0.1,1.1,0.2,2.5,0.2,4.7c0,2.3-0.1,3.9-0.2,4.9V142z
				 M93.5,133.9c0,0.8,0,1.7,0,2.9s0,2.2,0,3c0-0.8,0-1.8,0-3C93.6,135.6,93.5,134.7,93.5,133.9z M83.1,142h-0.7v-0.2
				c-0.1-1-0.2-2.6-0.2-4.9c0-2.2,0.1-3.6,0.2-4.7V132h0.7v0.2c0.1,1.1,0.2,2.5,0.2,4.7c0,2.3-0.1,3.9-0.2,4.9V142z M82.8,133.9
				c0,0.8,0,1.7,0,2.9s0,2.2,0,3c0-0.8,0-1.8,0-3C82.8,135.7,82.8,134.7,82.8,133.9z M88.1,141.2c-1,0-1.7-0.8-1.7-2.1v-5.3
				c0-2.5-0.8-3.4-2.2-4l-0.1-0.1v-0.6l0.1-0.1c1.4-0.7,2.2-1.5,2.2-4v-6.5c0-1.3,0.7-2.1,1.7-2.1s1.7,0.8,1.7,2.1v6.5
				c0,2.5,0.8,3.4,2.2,4l0.1,0.1v0.6l-0.1,0.1c-1.4,0.7-2.2,1.5-2.2,4v5.3C89.8,140.4,89.1,141.2,88.1,141.2z M84.7,129.5
				c1.4,0.7,2.2,1.7,2.2,4.4v5.3c0,1,0.5,1.6,1.2,1.6s1.2-0.6,1.2-1.6v-5.3c0-2.6,0.8-3.6,2.2-4.4c-1.4-0.7-2.2-1.7-2.2-4.4v-6.5
				c0-1-0.5-1.6-1.2-1.6s-1.2,0.6-1.2,1.6v6.5C87,127.8,86.1,128.8,84.7,129.5z M95.8,140.5h-0.7v-0.2c-0.1-0.8-0.2-1.9-0.2-3.5
				c0-1.8,0.1-2.5,0.2-3.3v-0.2h0.7v0.2c0.1,0.7,0.2,1.5,0.2,3.3c0,1.6-0.1,2.7-0.2,3.5V140.5z M95.4,134.8c0,0.5,0,1.1,0,2
				c0,0.8,0,1.5,0,2.1c0-0.6,0-1.3,0-2.1C95.5,135.9,95.5,135.3,95.4,134.8z M91.9,140.5h-0.7v-0.2c-0.1-0.8-0.2-1.9-0.2-3.5
				c0-1.8,0.1-2.5,0.2-3.3v-0.2h0.7v0.2c0.1,0.7,0.2,1.5,0.2,3.3c0,1.6-0.1,2.7-0.2,3.5V140.5z M91.6,134.8c0,0.5,0,1.1,0,2
				c0,0.8,0,1.5,0,2.1c0-0.6,0-1.3,0-2.1C91.7,135.9,91.6,135.3,91.6,134.8z M85,140.5h-0.7v-0.2c-0.1-0.8-0.2-1.9-0.2-3.5
				c0-1.8,0.1-2.5,0.2-3.3v-0.2H85v0.2c0.1,0.7,0.2,1.5,0.2,3.3c0,1.6-0.1,2.7-0.2,3.5V140.5z M84.7,134.8c0,0.5,0,1.1,0,2
				c0,0.8,0,1.5,0,2.1c0-0.6,0-1.3,0-2.1C84.7,135.9,84.7,135.3,84.7,134.8z M81.2,140.5h-0.7v-0.2c-0.1-0.8-0.2-1.9-0.2-3.5
				c0-1.8,0.1-2.5,0.2-3.3v-0.2h0.7v0.2c0.1,0.7,0.2,1.5,0.2,3.3c0,1.6-0.1,2.7-0.2,3.5V140.5z M80.9,134.8c0,0.5,0,1.1,0,2
				c0,0.8,0,1.5,0,2.1c0-0.6,0-1.3,0-2.1C80.9,135.9,80.9,135.3,80.9,134.8z M93.9,127.5h-0.7v-0.2c-0.1-1.2-0.2-2.8-0.2-5.4
				c0-2.5,0.1-4.2,0.2-5.6v-0.2h0.7v0.2c0.1,1.4,0.2,3.1,0.2,5.6s-0.1,4.2-0.2,5.4V127.5z M93.5,118.5c0,0.9,0,2,0,3.4
				c0,1.3,0,2.4,0,3.3c0-0.9,0-2,0-3.3C93.6,120.6,93.5,119.5,93.5,118.5z M83.1,127.5h-0.7v-0.2c-0.1-1.2-0.2-2.8-0.2-5.4
				c0-2.5,0.1-4.2,0.2-5.6v-0.2h0.7v0.2c0.1,1.4,0.2,3.1,0.2,5.6s-0.1,4.2-0.2,5.4V127.5z M82.8,118.5c0,0.9,0,2,0,3.4
				c0,1.3,0,2.4,0,3.3c0-0.9,0-2,0-3.3S82.8,119.5,82.8,118.5z M95.8,126h-0.7v-0.2c-0.1-1-0.2-2.1-0.2-3.9c0-1.9,0.1-3.2,0.2-4.2
				v-0.2h0.7v0.2c0.1,0.9,0.2,2.3,0.2,4.2c0,1.9-0.1,3-0.2,3.9V126z M95.4,119.4c0,0.7,0,1.5,0,2.5s0,1.8,0,2.4c0-0.7,0-1.4,0-2.4
				C95.5,120.9,95.5,120.1,95.4,119.4z M91.9,126h-0.7v-0.2c-0.1-1-0.2-2.1-0.2-3.9c0-1.9,0.1-3.2,0.2-4.2v-0.2h0.7v0.2
				c0.1,0.9,0.2,2.3,0.2,4.2c0,1.9-0.1,3-0.2,3.9V126z M91.6,119.4c0,0.7,0,1.5,0,2.5s0,1.8,0,2.4c0-0.7,0-1.4,0-2.4
				C91.7,120.9,91.6,120.1,91.6,119.4z M85,126h-0.7v-0.2c-0.1-1-0.2-2.1-0.2-3.9c0-1.9,0.1-3.2,0.2-4.2v-0.2H85v0.2
				c0.1,0.9,0.2,2.3,0.2,4.2c0,1.9-0.1,3-0.2,3.9V126z M84.7,119.4c0,0.7,0,1.5,0,2.5s0,1.8,0,2.4c0-0.7,0-1.4,0-2.4
				S84.7,120.1,84.7,119.4z M81.2,126h-0.7v-0.2c-0.1-1-0.2-2.1-0.2-3.9c0-1.9,0.1-3.2,0.2-4.2v-0.2h0.7v0.2
				c0.1,0.9,0.2,2.3,0.2,4.2c0,1.9-0.1,3-0.2,3.9V126z M80.9,119.4c0,0.7,0,1.5,0,2.5s0,1.8,0,2.4c0-0.7,0-1.4,0-2.4
				S80.9,120.1,80.9,119.4z M86.1,115.8l-1-1l0.9-1l1,1L86.1,115.8z M85.7,114.8l0.3,0.3l0.3-0.3l-0.3-0.3L85.7,114.8z M90.8,115.8
				l-1-1l0.9-1l1.1,1L90.8,115.8z M90.5,114.8l0.3,0.3l0.3-0.3l-0.3-0.3L90.5,114.8z"/>
		</g>
		<g>
			<path class="st0" d="M122.1,114.2v2.4c-0.8,0-1.1,0.5-1.1,1.4v6.9c0,2.7-0.8,3.7-2.4,4.5v0.2c1.6,0.8,2.4,1.8,2.4,4.5v5.6
				c0,0.9,0.4,1.4,1.1,1.4v2.4c-4.5,0-5.9,1.6-5.9,4.1h-1.3c-1.6,0-2.8-1-3.1-2.6h-0.5c-0.3,1.6-1.6,2.6-3.1,2.6h-1.3
				c-0.1-2.5-1.4-4.1-5.9-4.1v-2.4c0.8,0,1.1-0.5,1.1-1.4v-5.6c0-2.7,0.8-3.7,2.4-4.5v-0.2c-1.6-0.8-2.4-1.8-2.4-4.5V118
				c0-0.9-0.4-1.4-1.1-1.4v-2.4c4.5,0,5.9-1.6,5.9-4.1h1.3c1.6,0,2.8,1,3.1,2.6h0.5c0.3-1.6,1.6-2.6,3.1-2.6h1.3
				C116.2,112.6,117.6,114.2,122.1,114.2z M104.1,117.8c-0.1,0.9-0.2,2.2-0.2,4.1c0,2,0.1,3,0.2,3.9h0.2c0.1-0.9,0.2-1.9,0.2-3.9
				s-0.1-3.2-0.2-4.1H104.1z M104.1,133.6c-0.1,0.8-0.2,1.6-0.2,3.2c0,1.7,0.1,2.7,0.2,3.5h0.2c0.1-0.8,0.2-1.8,0.2-3.5
				s-0.1-2.5-0.2-3.2H104.1z M106.1,116.3c-0.1,1.3-0.2,3-0.2,5.6s0.1,4.2,0.2,5.3h0.2c0.1-1.1,0.2-2.8,0.2-5.3
				c0-2.6-0.1-4.3-0.2-5.6H106.1z M106.1,132.1c-0.1,1.1-0.2,2.4-0.2,4.7s0.1,3.9,0.2,4.9h0.2c0.1-1,0.2-2.6,0.2-4.9
				c0-2.3-0.1-3.6-0.2-4.7H106.1z M110.1,118.6v6.5c0,2.6-0.8,3.5-2.3,4.2v0.2c1.6,0.7,2.3,1.7,2.3,4.2v5.3c0,1.1,0.5,1.9,1.4,1.9
				s1.4-0.8,1.4-1.9v-5.3c0-2.6,0.8-3.5,2.3-4.2v-0.2c-1.6-0.7-2.3-1.7-2.3-4.2v-6.5c0-1.1-0.5-1.9-1.4-1.9
				C110.7,116.7,110.1,117.5,110.1,118.6z M108,117.8c-0.1,0.9-0.2,2.2-0.2,4.1c0,2,0.1,3,0.2,3.9h0.2c0.1-0.9,0.2-1.9,0.2-3.9
				s-0.1-3.2-0.2-4.1H108z M108,133.6c-0.1,0.8-0.2,1.6-0.2,3.2c0,1.7,0.1,2.7,0.2,3.5h0.2c0.1-0.8,0.2-1.8,0.2-3.5
				s-0.1-2.5-0.2-3.2H108z M109.4,114.1l-0.6,0.7l0.7,0.7l0.6-0.7L109.4,114.1z M109.4,142.3l-0.6,0.7l0.7,0.7l0.6-0.7L109.4,142.3z
				 M114.1,114.1l-0.6,0.7l0.7,0.7l0.7-0.7L114.1,114.1z M114.1,142.3l-0.6,0.7l0.7,0.7l0.7-0.7L114.1,142.3z M114.9,117.8
				c-0.1,0.9-0.2,2.2-0.2,4.1c0,2,0.1,3,0.2,3.9h0.2c0.1-0.9,0.2-1.9,0.2-3.9s-0.1-3.2-0.2-4.1H114.9z M114.9,133.6
				c-0.1,0.8-0.2,1.6-0.2,3.2c0,1.7,0.1,2.7,0.2,3.5h0.2c0.1-0.8,0.2-1.8,0.2-3.5s-0.1-2.5-0.2-3.2H114.9z M116.8,116.3
				c-0.1,1.3-0.2,3-0.2,5.6s0.1,4.2,0.2,5.3h0.2c0.1-1.1,0.2-2.8,0.2-5.3c0-2.6-0.1-4.3-0.2-5.6H116.8z M116.8,132.1
				c-0.1,1-0.2,2.4-0.2,4.7s0.1,3.9,0.2,4.9h0.2c0.1-1,0.2-2.6,0.2-4.9c0-2.3-0.1-3.7-0.2-4.7H116.8z M118.7,117.8
				c-0.1,0.9-0.2,2.2-0.2,4.1c0,2,0.1,3,0.2,3.9h0.2c0.1-0.9,0.2-1.9,0.2-3.9s-0.1-3.2-0.2-4.1H118.7z M118.7,133.6
				c-0.1,0.8-0.2,1.6-0.2,3.2c0,1.7,0.1,2.7,0.2,3.5h0.2c0.1-0.8,0.2-1.8,0.2-3.5s-0.1-2.5-0.2-3.2H118.7z"/>
			<path class="st2" d="M116.4,147.9h-1.5c-1.6,0-2.9-1-3.3-2.6h-0.1c-0.4,1.5-1.7,2.6-3.3,2.6h-1.5v-0.2c0-1.9-0.8-3.9-5.7-3.9
				h-0.2v-2.9h0.2c0.4,0,0.9-0.1,0.9-1.1v-5.6c0-2.7,0.9-3.8,2.4-4.6c-1.5-0.8-2.4-1.8-2.4-4.6v-7c0-1-0.5-1.1-0.9-1.1h-0.2V114h0.2
				c4.9,0,5.6-2,5.7-3.9v-0.2h1.5c1.6,0,2.9,1,3.3,2.6h0.1c0.4-1.5,1.7-2.6,3.3-2.6h1.5v0.2c0,1.9,0.8,3.9,5.7,3.9h0.2v2.9h-0.2
				c-0.4,0-0.9,0.1-0.9,1.1v6.9c0,2.7-0.9,3.8-2.4,4.6c1.5,0.8,2.4,1.8,2.4,4.6v5.6c0,1,0.5,1.1,0.9,1.1h0.2v2.9h-0.2
				c-4.9,0-5.6,2-5.7,3.9V147.9z M111.1,144.8h0.9v0.2c0.3,1.4,1.4,2.4,2.9,2.4h1c0.2-2.8,2.1-4.1,5.9-4.1v-2
				c-0.6-0.1-1.1-0.4-1.1-1.6v-5.6c0-2.6-0.8-3.5-2.3-4.3l-0.1-0.1v-0.6l0.1-0.1c1.5-0.7,2.3-1.6,2.3-4.3V118c0-1.2,0.6-1.5,1.1-1.6
				v-1.9c-3.8-0.1-5.7-1.4-5.9-4.1h-1c-1.4,0-2.6,1-2.9,2.4v0.2h-0.9v-0.2c-0.3-1.4-1.4-2.4-2.9-2.4h-1c-0.2,2.8-2.1,4.1-5.9,4.1
				v1.9c0.6,0.1,1.1,0.4,1.1,1.6v6.9c0,2.6,0.8,3.5,2.3,4.3l0.1,0.1v0.6l-0.1,0.1c-1.5,0.7-2.3,1.6-2.3,4.3v5.6
				c0,1.2-0.6,1.5-1.1,1.6v2c3.8,0.1,5.7,1.4,5.9,4.1h1c1.4,0,2.6-1,2.9-2.4V144.8z M109.5,144l-1-1l0.9-1l1,1L109.5,144z
				 M109.1,143l0.3,0.3l0.3-0.3l-0.3-0.3L109.1,143z M114.2,144l-1-1l0.9-1l1.1,1L114.2,144z M113.9,143l0.3,0.3l0.3-0.3l-0.3-0.3
				L113.9,143z M117.3,142h-0.7v-0.2c-0.1-1-0.2-2.7-0.2-4.9s0.1-3.6,0.2-4.7V132h0.7v0.2c0.1,1.1,0.2,2.5,0.2,4.7
				c0,2.3-0.1,3.9-0.2,4.9V142z M116.9,133.9c0,0.8,0,1.7,0,2.9s0,2.2,0,3c0-0.8,0-1.8,0-3C117,135.6,117,134.7,116.9,133.9z
				 M106.5,142h-0.7v-0.2c-0.1-1-0.2-2.7-0.2-4.9s0.1-3.6,0.2-4.7V132h0.7v0.2c0.1,1.1,0.2,2.5,0.2,4.7c0,2.3-0.1,3.9-0.2,4.9V142z
				 M106.2,133.9c0,0.8,0,1.7,0,2.9s0,2.2,0,3c0-0.8,0-1.8,0-3C106.2,135.7,106.2,134.7,106.2,133.9z M111.5,141.2
				c-1,0-1.7-0.8-1.7-2.1v-5.3c0-2.5-0.8-3.4-2.2-4l-0.1-0.1v-0.6l0.1-0.1c1.4-0.7,2.2-1.5,2.2-4v-6.5c0-1.3,0.7-2.1,1.7-2.1
				s1.7,0.8,1.7,2.1v6.5c0,2.5,0.8,3.4,2.2,4l0.1,0.1v0.6l-0.1,0.1c-1.4,0.7-2.2,1.5-2.2,4v5.3C113.2,140.4,112.6,141.2,111.5,141.2
				z M108.1,129.5c1.4,0.7,2.3,1.7,2.3,4.4v5.3c0,1,0.5,1.6,1.2,1.6s1.2-0.6,1.2-1.6v-5.3c0-2.6,0.8-3.6,2.2-4.4
				c-1.4-0.7-2.2-1.7-2.2-4.4v-6.5c0-1-0.5-1.6-1.2-1.6s-1.2,0.6-1.2,1.6v6.5C110.4,127.8,109.5,128.8,108.1,129.5z M119.2,140.5
				h-0.7v-0.2c-0.1-0.8-0.2-1.9-0.2-3.5c0-1.8,0.1-2.5,0.2-3.3v-0.2h0.7v0.2c0.1,0.7,0.2,1.5,0.2,3.3c0,1.6-0.1,2.7-0.2,3.5V140.5z
				 M118.8,134.8c0,0.5,0,1.1,0,2s0,1.6,0,2.1c0-0.6,0-1.3,0-2.1C118.9,135.9,118.9,135.3,118.8,134.8z M115.3,140.5h-0.7v-0.2
				c-0.1-0.8-0.2-1.9-0.2-3.5c0-1.8,0.1-2.5,0.2-3.3v-0.2h0.7v0.2c0.1,0.8,0.2,1.5,0.2,3.3c0,1.6-0.1,2.7-0.2,3.5V140.5z M115,134.8
				c0,0.5,0,1.1,0,2c0,0.8,0,1.5,0,2.1c0-0.6,0-1.3,0-2.1C115.1,135.9,115,135.3,115,134.8z M108.4,140.5h-0.7v-0.2
				c-0.1-0.8-0.2-1.9-0.2-3.5c0-1.7,0.1-2.5,0.2-3.3v-0.2h0.7v0.2c0.1,0.8,0.2,1.5,0.2,3.3c0,1.6-0.1,2.7-0.2,3.5V140.5z
				 M108.1,134.8c0,0.5,0,1.1,0,2c0,0.8,0,1.5,0,2.1c0-0.6,0-1.3,0-2.1C108.1,135.9,108.1,135.3,108.1,134.8z M104.6,140.5h-0.7
				v-0.2c-0.1-0.8-0.2-1.9-0.2-3.5c0-1.8,0.1-2.5,0.2-3.3v-0.2h0.7v0.2c0.1,0.7,0.2,1.5,0.2,3.3c0,1.6-0.1,2.7-0.2,3.5V140.5z
				 M104.3,134.8c0,0.5,0,1.1,0,2s0,1.6,0,2.1c0-0.6,0-1.3,0-2.1C104.3,135.9,104.3,135.3,104.3,134.8z M117.3,127.5h-0.7v-0.2
				c-0.1-1.2-0.2-2.8-0.2-5.4c0-2.5,0.1-4.2,0.2-5.6v-0.2h0.7v0.2c0.1,1.4,0.2,3.1,0.2,5.6s-0.1,4.2-0.2,5.4V127.5z M116.9,118.5
				c0,0.9,0,2,0,3.4c0,1.3,0,2.4,0,3.3c0-0.9,0-2,0-3.3C117,120.6,117,119.5,116.9,118.5z M106.5,127.5h-0.7v-0.2
				c-0.1-1.2-0.2-2.8-0.2-5.4c0-2.5,0.1-4.2,0.2-5.6v-0.2h0.7v0.2c0.1,1.4,0.2,3.1,0.2,5.6s-0.1,4.2-0.2,5.4V127.5z M106.2,118.5
				c0,0.9,0,2,0,3.4c0,1.3,0,2.4,0,3.3c0-0.9,0-2,0-3.3S106.2,119.5,106.2,118.5z M119.2,126h-0.7v-0.2c-0.1-1-0.2-2.1-0.2-3.9
				c0-1.9,0.1-3.2,0.2-4.2v-0.2h0.7v0.2c0.1,0.9,0.2,2.2,0.2,4.2c0,1.9-0.1,3-0.2,3.9V126z M118.8,119.4c0,0.7,0,1.5,0,2.5
				s0,1.8,0,2.4c0-0.7,0-1.4,0-2.4C118.9,120.9,118.9,120.1,118.8,119.4z M115.3,126h-0.7v-0.2c-0.1-1-0.2-2.1-0.2-3.9
				c0-1.9,0.1-3.2,0.2-4.2v-0.2h0.7v0.2c0.1,0.9,0.2,2.3,0.2,4.2c0,1.9-0.1,3-0.2,3.9V126z M115,119.4c0,0.7,0,1.5,0,2.5
				s0,1.8,0,2.4c0-0.7,0-1.4,0-2.4C115.1,120.9,115,120.1,115,119.4z M108.4,126h-0.7v-0.2c-0.1-1-0.2-2.1-0.2-3.9
				c0-1.9,0.1-3.2,0.2-4.2v-0.2h0.7v0.2c0.1,0.9,0.2,2.3,0.2,4.2c0,1.9-0.1,3-0.2,3.9V126z M108.1,119.4c0,0.7,0,1.5,0,2.5
				s0,1.8,0,2.4c0-0.7,0-1.4,0-2.4S108.1,120.1,108.1,119.4z M104.6,126h-0.7v-0.2c-0.1-1-0.2-2.1-0.2-3.9c0-1.9,0.1-3.2,0.2-4.2
				v-0.2h0.7v0.2c0.1,0.9,0.2,2.2,0.2,4.2c0,1.9-0.1,3-0.2,3.9V126z M104.3,119.4c0,0.7,0,1.5,0,2.5s0,1.8,0,2.4c0-0.7,0-1.4,0-2.4
				S104.3,120.1,104.3,119.4z M109.5,115.8l-1-1l0.9-1l1,1L109.5,115.8z M109.1,114.8l0.3,0.3l0.3-0.3l-0.3-0.3L109.1,114.8z
				 M114.2,115.8l-1-1l0.9-1l1.1,1L114.2,115.8z M113.9,114.8l0.3,0.3l0.3-0.3l-0.3-0.3L113.9,114.8z"/>
		</g>
		<g>
			<path class="st0" d="M128.2,129.6v-0.2c-1.6-0.8-2.4-1.8-2.4-4.5V116c0-1.5-0.6-2.3-2-2.3v-2.5h1.5c2.7,0,4,1.1,4.3,2.9h0.3
				c0.3-1.8,1.6-2.9,4.3-2.9h2.3v2.5c-2,0-2.8,1-2.8,3v8.4c0,2.6-0.8,3.5-2.4,4.2v0.2c1.6,0.7,2.4,1.7,2.4,4.2v5.6
				c0,1.1,0.3,1.7,1,1.7c0.9,0,1.4-0.8,1.6-2.6l1-7.3h4.2l0.5,11.3c0.1,0.9,0.4,1.4,1.4,1.4v2.5l-5.8,0.8h-0.4
				c-2.3,0-4.4-1.4-4.8-4.1H132c-0.4,2-1.7,3.3-3.5,3.3h-4.6V144c1.4,0,2-0.8,2-2.3V134C125.8,131.4,126.6,130.4,128.2,129.6z
				 M128,125.5c0.1-0.9,0.2-1.9,0.2-3.8c0-2-0.1-3.1-0.2-4h-0.2c-0.1,1-0.2,2-0.2,4c0,1.9,0.1,2.9,0.2,3.8H128z M128,142
				c0.1-1,0.2-2.2,0.2-4.3s-0.1-3.2-0.2-4.2h-0.2c-0.1,1-0.2,2.1-0.2,4.2s0.1,3.4,0.2,4.3H128z M129.9,126.9
				c0.1-1.1,0.2-2.7,0.2-5.2c0-2.6-0.1-3.8-0.2-5.5h-0.2c-0.1,1.7-0.2,2.9-0.2,5.5c0,2.5,0.1,4.1,0.2,5.2H129.9z M129.9,143.4
				c0.1-1.3,0.2-3,0.2-5.7s-0.1-4-0.2-5.6h-0.2c-0.1,1.7-0.2,2.9-0.2,5.6s0.1,4.5,0.2,5.7H129.9z M131.8,125.4
				c0.1-0.9,0.2-1.8,0.2-3.7c0-2-0.1-3.1-0.2-4h-0.2c-0.1,1-0.2,2-0.2,4c0,1.9,0.1,2.8,0.2,3.7H131.8z M131.8,140
				c0.1-0.8,0.2-1.6,0.2-3.4c0-1.7-0.1-2.5-0.2-3.2h-0.2c-0.1,0.8-0.2,1.5-0.2,3.2c0,1.8,0.1,2.6,0.2,3.4H131.8z M138.3,142.2
				c0.1-0.5,0.1-1.1,0.1-2.2c0-1,0-1.7-0.1-2.1h-0.2c-0.1,0.5-0.1,1.1-0.1,2.1c0,1.1,0,1.7,0.1,2.2H138.3z M139.9,143.9l-0.6-0.7
				l-0.7,0.7l0.6,0.7L139.9,143.9z M139.8,141c0.1-0.7,0.2-1.6,0.2-3.4c0-1.8-0.1-2.6-0.2-3.3h-0.2c-0.1,0.7-0.2,1.5-0.2,3.3
				c0,1.7,0.1,2.6,0.2,3.4H139.8z"/>
			<path class="st2" d="M137.1,147.6c-2.1,0-4.4-1.2-5-4c-0.5,2-1.8,3.1-3.6,3.1h-4.8v-3h0.2c1.2,0,1.7-0.6,1.7-2V134
				c0-2.7,0.9-3.8,2.4-4.6c-1.5-0.8-2.4-1.8-2.4-4.6V116c0-1.4-0.5-2-1.7-2h-0.2v-3h1.7c2.5,0,4,0.9,4.4,2.7c0.5-1.8,2-2.7,4.4-2.7
				h2.6v3h-0.2c-1.8,0-2.6,0.8-2.6,2.7v8.4c0,2.6-0.9,3.7-2.4,4.4c1.5,0.7,2.4,1.7,2.4,4.4v5.6c0,1.5,0.5,1.5,0.8,1.5
				c0.5,0,1.1-0.2,1.3-2.3l1-7.5h4.6l0.5,11.6c0.1,0.8,0.4,1.1,1.1,1.1h0.2v3l-6,0.9L137.1,147.6z M131.7,143h0.8v0.2
				c0.4,2.7,2.6,3.9,4.6,3.9h0.4l5.5-0.8v-2.1c-0.9-0.1-1.3-0.6-1.4-1.6l-0.5-11.1h-3.7l-0.9,7c-0.1,1.2-0.4,2.8-1.8,2.8
				c-0.8,0-1.3-0.7-1.3-2v-5.6c0-2.5-0.8-3.3-2.3-4l-0.1-0.1V129l0.1-0.1c1.5-0.7,2.3-1.5,2.3-4v-8.4c0-2.1,0.9-3.1,2.8-3.2v-2h-2.1
				c-2.4,0-3.7,0.9-4.1,2.7v0.2h-0.7V114c-0.3-1.8-1.6-2.7-4.1-2.7H124v2c1.3,0.1,2,0.9,2,2.5v8.9c0,2.6,0.8,3.5,2.3,4.3l0.1,0.1
				v0.6l-0.1,0.1c-1.5,0.7-2.3,1.6-2.3,4.3v7.7c0,1.6-0.7,2.4-2,2.5v2h4.3c1.7,0,2.9-1.2,3.2-3.1L131.7,143z M139.3,144.9l-0.9-1
				l1-1l0.9,1L139.3,144.9z M139,143.9l0.3,0.3l0.3-0.3l-0.3-0.3L139,143.9z M130.1,143.6h-0.7v-0.2c-0.1-1.3-0.2-3.1-0.2-5.8
				c0-2.6,0.1-3.9,0.2-5.6v-0.2h0.7v0.2c0.1,1.7,0.2,3,0.2,5.6c0,2.7-0.1,4.5-0.2,5.8V143.6z M129.8,134.3c0,0.9,0,1.9,0,3.3
				s0,2.6,0,3.6c0-1,0-2.1,0-3.6C129.8,136.2,129.8,135.2,129.8,134.3z M138.5,142.4h-0.6v-0.2c-0.1-0.5-0.1-1.2-0.1-2.2
				s0-1.7,0.1-2.2v-0.2h0.6v0.2c0.1,0.5,0.1,1.1,0.1,2.2s0,1.7-0.1,2.2V142.4z M128.2,142.2h-0.7V142c-0.1-1-0.2-2.3-0.2-4.3
				s0.1-3.2,0.2-4.2v-0.2h0.7v0.2c0.1,1,0.2,2.3,0.2,4.2c0,2.1-0.1,3.3-0.2,4.3V142.2z M127.9,135c0,0.7,0,1.5,0,2.6s0,2,0,2.7
				c0-0.7,0-1.6,0-2.7C127.9,136.6,127.9,135.7,127.9,135z M140,141.2h-0.7V141c-0.1-0.8-0.2-1.8-0.2-3.4c0-1.9,0.1-2.6,0.2-3.3
				v-0.2h0.7v0.2c0.1,0.7,0.2,1.5,0.2,3.3c0,1.6-0.1,2.6-0.2,3.4V141.2z M139.7,135.5c0,0.5,0,1.2,0,2.1c0,0.9,0,1.6,0,2.1
				c0-0.6,0-1.2,0-2.1S139.7,136,139.7,135.5z M132,140.3h-0.7v-0.2c-0.1-0.8-0.2-1.6-0.2-3.4c0-1.8,0.1-2.5,0.2-3.3v-0.2h0.7v0.2
				c0.1,0.8,0.2,1.5,0.2,3.3c0,1.9-0.1,2.6-0.2,3.4V140.3z M131.7,134.6c0,0.5,0,1.1,0,2s0,1.6,0,2.1c0-0.5,0-1.2,0-2.1
				C131.8,135.8,131.7,135.1,131.7,134.6z M130.1,127.2h-0.7V127c-0.1-1.2-0.2-2.8-0.2-5.2c0-2.5,0.1-3.7,0.2-5.5v-0.2h0.7v0.2
				c0.1,1.7,0.2,2.9,0.2,5.5c0,2.4-0.1,4.1-0.2,5.2V127.2z M129.8,118.6c0,0.9,0,1.8,0,3.2c0,1.3,0,2.3,0,3.2c0-0.9,0-1.9,0-3.2
				C129.8,120.4,129.8,119.4,129.8,118.6z M128.2,125.7h-0.7v-0.2c-0.1-1-0.2-2-0.2-3.8c0-1.9,0.1-3,0.2-4v-0.2h0.7v0.2
				c0.1,1,0.2,2.2,0.2,4s0,2.8-0.2,3.8V125.7z M127.9,119.3c0,0.7,0,1.5,0,2.5s0,1.8,0,2.3c0-0.6,0-1.3,0-2.3
				C127.9,120.7,127.9,119.9,127.9,119.3z M132,125.7h-0.7v-0.2c-0.1-0.9-0.2-1.8-0.2-3.8c0-2.2,0.1-3.2,0.2-4v-0.2h0.7v0.2
				c0.1,1.1,0.2,2.2,0.2,4c0,2-0.1,2.9-0.2,3.8V125.7z M131.7,119.2c0,0.6,0,1.4,0,2.5c0,1,0,1.7,0,2.3c0-0.6,0-1.3,0-2.3
				C131.8,120.6,131.7,119.9,131.7,119.2z"/>
		</g>
	</g>
	<g>
		<path class="st0" d="M60.6,56.4L60,57.7c-0.4-0.5-1-0.7-1.6-0.7c-1,0-1.9,0.5-1.9,2.9s0.7,2.8,1.5,2.8c0.7,0,1.5-0.3,1.5-2v-0.1
			H58v-1.5h3.1v1.6c0,2.7-1.6,3.5-3.1,3.5s-3.1-0.8-3.1-4.3c0-3.4,1.6-4.4,3.3-4.4C59.3,55.5,60,55.8,60.6,56.4z"/>
		<path class="st0" d="M67,61.3c-0.2,0-0.5,0-0.7,0h-0.9V64h-1.6v-8.4h2.6c2.3,0,3.4,0.6,3.4,2.8c0,1.4-0.4,2.1-1.2,2.5l1.2,3H68
			L67,61.3z M66.3,59.9c1.2,0,1.7-0.2,1.7-1.4c0-1.1-0.5-1.3-1.7-1.3h-1v2.7H66.3z"/>
		<path class="st0" d="M74,59h2.7v1.5H74v2h3.3V64h-4.9v-8.4h4.9v1.5H74V59z"/>
		<path class="st0" d="M81.4,62.4L80.9,64h-1.7l2.7-8.4h1.8l2.8,8.4h-1.7l-0.5-1.6H81.4z M83.1,58.3c-0.1-0.4-0.2-0.7-0.3-1.1
			c-0.1,0.3-0.1,0.7-0.2,1.1L81.8,61h2.1L83.1,58.3z"/>
		<path class="st0" d="M91.6,57.2V64h-1.7v-6.8h-2.2v-1.6h6.1v1.6H91.6z"/>
		<path class="st0" d="M102.9,55.6c2.4,0,3.4,0.7,3.4,2.9c0,2.3-1,3-3.4,3H102V64h-1.6v-8.4H102.9z M102,60.1h0.9
			c1.3,0,1.7-0.3,1.7-1.5s-0.4-1.4-1.7-1.4H102V60.1z"/>
		<path class="st0" d="M112,61.3c-0.2,0-0.5,0-0.7,0h-0.9V64h-1.6v-8.4h2.6c2.3,0,3.4,0.6,3.4,2.8c0,1.4-0.4,2.1-1.2,2.5l1.2,3H113
			L112,61.3z M111.3,59.9c1.2,0,1.7-0.2,1.7-1.4c0-1.1-0.5-1.3-1.7-1.3h-1v2.7H111.3z"/>
		<path class="st0" d="M117.4,64v-8.4h1.7V64H117.4z"/>
		<path class="st0" d="M127.1,56.2l-0.5,1.4c-0.4-0.5-0.9-0.6-1.5-0.6c-0.8,0-1.7,0.3-1.7,2.8c0,2.4,0.9,2.7,1.7,2.7
			c0.6,0,1.1-0.2,1.5-0.6l0.5,1.4c-0.5,0.5-1.3,0.8-2.2,0.8c-1.6,0-3.2-0.7-3.2-4.3s1.6-4.4,3.2-4.4
			C125.9,55.5,126.6,55.7,127.1,56.2z"/>
		<path class="st0" d="M131.3,59h2.7v1.5h-2.7v2h3.3V64h-4.9v-8.4h4.9v1.5h-3.3V59z"/>
		<path class="st0" d="M142.1,56.4l-0.6,1.3c-0.4-0.5-0.8-0.7-1.5-0.7c-0.8,0-1.5,0.3-1.5,1.1c0,0.6,0.4,0.7,1.4,0.9h0.1
			c1.7,0.2,2.4,0.8,2.4,2.5c0,2.3-1.6,2.8-3,2.8c-1.3,0-2.2-0.4-2.8-1.2l0.7-1.3c0.4,0.6,1.1,0.9,1.9,0.9c0.7,0,1.5-0.3,1.5-1.2
			c0-0.6-0.4-0.8-1.3-0.9h-0.1c-1.7-0.2-2.5-0.7-2.5-2.3c0-2.1,1.5-2.8,3-2.8C140.9,55.5,141.6,55.8,142.1,56.4z"/>
	</g>
	<g>
		<path class="st0" d="M78.9,164.1l-0.2,1.3c-1.6,0.1-3.6-0.5-3.8-2c-1.3-0.3-2.4-1.4-2.4-4.3v-0.3c0-3.3,1.6-4.1,3.2-4.1
			s3.2,0.9,3.2,4.1v0.3c0,2.9-1.1,4-2.4,4.3C76.6,164.1,78,164.1,78.9,164.1z M74.2,159c0,2.5,0.7,2.9,1.5,2.9s1.5-0.4,1.5-2.9l0,0
			c0-2.4-0.7-2.8-1.5-2.8S74.2,156.5,74.2,159L74.2,159z"/>
		<path class="st0" d="M87.7,160.4c0,2.2-1.5,3.1-3.1,3.1s-3.1-0.8-3.1-3.1v-5.5h1.6v5.5c0,1.2,0.7,1.5,1.5,1.5s1.5-0.4,1.5-1.5
			v-5.5h1.6V160.4z"/>
		<path class="st0" d="M91.9,161.6l-0.5,1.6h-1.7l2.7-8.4h1.8l2.8,8.4h-1.7l-0.5-1.6H91.9z M93.6,157.5c-0.1-0.4-0.2-0.7-0.3-1.1
			c-0.1,0.3-0.1,0.7-0.2,1.1l-0.8,2.7h2.1L93.6,157.5z"/>
		<path class="st0" d="M104,161.7v1.5h-4.7v-8.4h1.7v6.8L104,161.7L104,161.7z"/>
		<path class="st0" d="M106.3,163.2v-8.4h1.7v8.4H106.3z"/>
		<path class="st0" d="M114.2,156.4v6.8h-1.7v-6.8h-2.2v-1.6h6.1v1.6H114.2z"/>
		<path class="st0" d="M122.4,160.6v2.6h-1.7v-2.6l-2.6-5.8h1.8l1.7,3.9l1.7-3.9h1.8L122.4,160.6z"/>
	</g>
</g>
</svg>
